<svg width="385" height="445" viewBox="0 0 385 445" fill="none" xmlns="http://www.w3.org/2000/svg">
<path d="M342.5 170.1L342.1 26.7L349.3 2.80005L356.3 26.3L355.7 170.3L359.8 174.9L359.7 180.6L354.8 185.8V204.9L343.8 205.4V185.8L338.9 180.6V174.4L342.5 170.1Z" fill="#A7EBF2"/>
<path d="M352 31L349.4 20.3L349.3 2.80005L356.3 26.3L355.7 170.3L359.8 174.9L359.7 180.6L354.8 185.8V193.3L351 193.6V184.3L357.5 177.7L351.8 170.4L352 31Z" fill="#A7D1D3"/>
<path d="M346.6 31L349.3 20.3L349.4 2.80005L342.4 26.3L343 170.3L338.9 174.9L339 180.6L343.9 185.8V193.3L347.6 193.6L347.7 184.3L341.2 177.7L346.9 170.4L346.6 31Z" fill="#D4FBFF"/>
<path d="M353.2 232.8V237.2C355.6 236.5 357.8 234.7 358.8 232.4C358.5 232.1 358.1 231.6 357.8 231.3C357.8 231.4 357.8 231.4 357.7 231.5C356.3 231.9 354.6 232.3 353.2 232.8ZM27.0001 248.9C27.4001 249.4 27.8001 250 28.3001 250.5C29.2001 250.1 30.1001 249.8 31.0001 249.7C31.9001 249.6 33.0001 250 33.4001 250.8C34.0001 251.8 33.5001 253.1 32.7001 253.9C31.3001 255.5 28.8001 256 26.9001 255.1C25.0001 254.2 23.7001 252 24.0001 249.9C22.5001 250 20.8001 250.1 19.4001 249.4C18.1001 248.8 17.2001 247.5 17.0001 246.1C16.8001 244.7 17.3001 243.2 18.4001 242.2C17.4001 242.5 16.0001 242.3 14.9001 242.3C13.8001 242.3 12.7001 242 11.9001 241.3C11.1001 240.6 10.8001 239.3 11.3001 238.4C11.8001 237.4 13.0001 237 14.1001 236.7C15.1001 236.4 16.2001 236.1 17.2001 235.8C18.6001 237.8 20.0001 239.7 21.4001 241.7C21.9001 242.5 22.5001 243.2 23.1001 243.9C24.0001 243.7 25.1001 244.1 25.7001 244.9C26.3001 245.7 26.3001 246.8 25.8001 247.7C26.3001 248.1 26.6001 248.4 27.0001 248.9Z" fill="#FFE3BE"/>
<path d="M24.3 249.7C23.7 250.5 23.5 251.6 23.9 252.5C24.3 253.4 25.2 254.1 26.2 254C27 253.9 27.7 253.3 28.4 252.8C29.1 252.3 29.9 251.8 30.7 252C31.3 252.1 31.8 252.6 31.9 253.2C32 253.8 31.8 254.5 31.3 254.8C32.6 254.8 33.6 253.6 33.7 252.3C33.7 251 32.7 249.9 31.5 249.6C30.3 249.4 28.9 250 28.3 251.1C27.9 250.5 27.2 248.5 26.6 248.2C25.9 248 24.7 249.2 24.3 249.7Z" fill="#FCCC9F"/>
<path d="M24.1 248.8C24.6 248.3 24.9 247.5 24.6 246.8C24.2 246.1 23.2 245.9 22.4 246.2C21.6 246.5 21 247 20.3 247.4C19.6 247.8 18.7 248 18 247.6C17.1 247.1 17 245.8 17.5 244.9C18 244 18.8 243.4 19.7 242.9C20.3 242.5 20.9 242.1 21.6 242.3C22.6 242.5 23 243.6 23.3 244.6C24.2 244 25.7 244.5 26.2 245.5C26.7 246.5 26.3 247.8 25.5 248.6C24.8 249.3 23.8 249.6 22.8 249.7C23.1 249.4 23.7 249.2 24.1 248.8ZM18.2 241.7C17.6 240.8 17.1 239.9 16.5 238.9C15.8 238.7 15.1 238.8 14.4 239C13.7 239.2 13.1 239.7 12.8 240.4C12.5 241.1 12.7 241.9 13.3 242.4C12.6 242 11.9 241.6 11.5 240.9C11.1 240.2 11 239.3 11.4 238.6C11.8 238 12.5 237.6 13.1 237.4C14.5 236.8 15.9 236.4 17.4 236.2C18.5 237.8 19.7 239.4 20.8 241C19.9 241 19.1 241.5 18.2 241.7Z" fill="#FCCC9F"/>
<path d="M355.7 235.3C354.3 237.3 349.6 238.7 349.6 238.7C348.2 239.2 347.4 240.8 348 242.2C348.5 243.5 349.9 244.2 351.3 243.8C358.6 242.3 360.9 239.3 360.7 235.3C360.6 233.5 357.7 231.9 357.7 231.9" fill="#FFE3BE"/>
<path d="M355.7 235.3C354.3 237.3 349.6 238.7 349.6 238.7C348.2 239.2 347.4 240.8 348 242.2C348.5 243.5 349.9 244.2 351.3 243.8C358.6 242.3 360.9 239.3 360.7 235.3C360.6 233.5 357.7 231.9 357.7 231.9" stroke="black" stroke-width="2" stroke-miterlimit="10" stroke-linecap="round" stroke-linejoin="round"/>
<path d="M357.9 232.6C359.2 233.3 359.3 235.5 358.4 236.5C357.2 237.9 355.5 239 353.7 239.6C353 239.8 352.3 240 351.7 240.4C351.1 240.8 350.6 241.5 350.7 242.2C350.8 242.9 351.7 243.5 352.3 243C350.2 244.5 347.2 242.9 348.4 240.2C348.8 239.3 349.6 238.6 350.5 238.2C351.4 237.8 352.4 237.6 353.4 237.4C353.3 235.9 353.4 234.4 353.3 233C354 232.9 354.7 232.8 355.5 232.7C356.1 232.6 356.9 232.4 357.5 232.5C357.6 232.5 357.8 232.6 357.9 232.6Z" fill="#FCCC9F"/>
<path d="M45.2 239.8C46.2 241.9 49.6 242.5 48.4 245.4C47.9 246.4 47.0001 247.2 46.1001 247.9C43.2001 250.2 40.4 252.6 37.5 254.9C36.6 255.7 35.5001 256.5 34.3001 256.6C33.1001 256.7 31.7 255.6 32 254.4C32.3 253.2 34.2 252 32.9 250.7C32.3 250.1 31.2 250.1 30.5 250.1C30.2 250.1 28.1001 250.6 28.1001 250.5C27.4001 249.5 26.6001 248.4 25.8001 247.4C25.8001 247.3 26 246.5 26 246.3C26 245.8 25.9001 245.4 25.6001 245C25.1001 244.3 24.2001 243.7 23.6001 243.1C22.2001 241.7 20.8 240.2 19.5 238.7C16.9 235.6 14.5 232.4 12.4 229C11.6 227.7 12.7001 225.8 13.6001 224.6C14.6001 223.4 15.8001 222.6 17.1001 221.7C19.4001 220.2 21.7 218.7 24 217.1C25.3 216.2 26.8001 215.3 28.3001 215.8C29.1001 216 29.8 216.7 30.4 217.3C33.1 220.2 34.8 223.6 37.2 226.7C38.9 228.9 40.5 231.1 42 233.3C42.7 234.4 43.7 235.5 44.2 236.7C44.7 237.8 44.7 238.8 45.2 239.8Z" fill="#262323"/>
<path d="M346.8 274.5H346.5C348.4 274.7 350.3 274.9 352.1 275.1C353.1 273.1 353.7 270.9 353.9 268.6C354.9 268 355.8 267.4 356.8 266.8V264.7C354.7 263.9 353.1 261.9 352.6 259.7C353 259.2 353.4 258.8 353.8 258.3C353.8 257.1 353.7 255.8 353.7 254.6C352.6 255 351.3 254.6 350.5 253.8C349.7 253 349.3 251.6 349.7 250.5C349.5 249.9 349.4 249.2 349.2 248.5C347.9 248.1 346.9 246.9 346.8 245.6C346.6 244.3 347.4 242.9 348.5 242.2C347.9 241.6 348 240.6 348.4 239.9C348.8 239.2 349.5 238.7 350.2 238.2C351.3 237.5 352.5 237 353.7 236.5L353.4 232.6C351.9 232.7 350.3 232.8 348.8 232.9C348.5 235.8 346.9 238.6 344.4 240.2C344.5 241.2 344.3 242.5 344.7 243.4C345 244.3 345.3 245 345.3 246.1V256.6C345.3 259 345.2 261.7 343.6 263.5C342.9 264.2 342 264.9 342 265.9C342 266.5 342.3 267.1 342.8 267.5C343.8 268.4 344.4 268.5 345.1 269.7C345.7 271.4 346.4 272.9 346.8 274.5Z" fill="#AAB2E2"/>
<path d="M346.9 238.1C347.5 238.3 348.2 238.6 348.8 238.8C347.8 239.7 347.7 241.4 348.6 242.4C347.7 242.6 347 243.2 346.7 244C346.4 244.8 346.5 245.8 346.9 246.5C347.4 247.2 348.1 247.6 348.5 248.4C348.7 248.8 348.8 249.3 349 249.7C349.2 250.1 349.6 250.5 350.1 250.5C349.4 251.5 349.4 252.9 350.1 253.9C350.8 254.9 352.1 255.4 353.2 255.1V257.4C351.4 257.9 349.4 257.3 348.2 255.9C347 254.5 346.7 252.4 347.6 250.7C346.9 250.4 346.4 249.8 346.1 249.1C345.8 248.4 345.6 247.7 345.5 246.9C345.2 244.5 345.3 242 345.8 239.6C346.3 239.3 346.7 238.7 346.9 238.1ZM353.3 234.1C351.8 235.9 349.6 237.1 347.3 237.4C347.7 236.2 348 234.9 348.4 233.7C350.1 233.4 351.7 233.2 353.4 232.9C353.4 233.3 353.3 233.8 353.3 234.1Z" fill="#45519B"/>
<path d="M345.5 259.8C345.1 262.2 343.5 264.4 341.2 265.3C341.2 266.1 342 266.6 342.7 267C343.3 267.4 344.1 267.8 344.5 268.4C344.7 268.8 344.8 269.2 345 269.6C345.4 271.2 345.9 272.9 346.3 274.5C348.1 274.5 349.9 274.5 351.7 274.6C352.3 272.7 352.8 270.8 353.5 269C355.2 268.6 356.7 267.2 357.2 265.5C354.7 265.1 352.5 262.8 352.7 260.2C353.1 259.9 353.4 259.6 353.7 259.2C351.3 261 347.9 261.1 345.5 259.8Z" fill="#858ED7"/>
<path d="M345 269.8C345.4 270.5 346.1 270.9 346.9 271C347.7 271.1 348.5 270.8 349.1 270.3C349.5 270.8 349.9 271.1 350.5 271.1C349.9 272 349.6 273.5 349.5 274.5C350 274.6 351.3 274.4 351.8 274.4C352.2 272.7 352.5 271.1 352.8 269.4C351.4 269.6 349.9 268.9 349.1 267.6C348.4 269.1 346.6 270.1 345 269.8ZM343 267.1H356.1L355.6 265H342.2L343 267.1ZM345.3 262C346.4 262.9 347.7 263.4 349.1 263.3C350.5 263.3 351.8 262.7 352.8 261.8L352.2 260C351.3 260.7 350.2 261.2 349 261.2C347.8 261.2 346.7 260.7 345.8 260C345.8 260.6 345.5 261.3 345.3 262Z" fill="#45519B"/>
<path d="M192.7 387.1C271.842 387.1 336 322.942 336 243.8C336 164.658 271.842 100.5 192.7 100.5C113.558 100.5 49.4 164.658 49.4 243.8C49.4 322.942 113.558 387.1 192.7 387.1Z" fill="#FEDFA4"/>
<path d="M105.9 105.7C110.3 105.7 114.8 105.8 119.2 105.8C119.1 101.4 119 97 118.9 92.5C114.6 92.5 110.4 92.4 106.2 92.4C106.1 96.9 106.1 101.3 105.9 105.7Z" fill="#FFF7E6"/>
<path d="M357.1 193.7C357.2 194.9 357.2 196.2 357.2 197.4C357.2 197.7 357.2 198 357 198.3C356.9 198.6 356.5 198.8 356.2 198.8C356.3 200.7 356.4 202.3 356.6 204.2C359.4 204.8 361.9 206.2 363.8 208.3C364.4 207.4 364.8 206.3 365 205.3C365.2 204.5 365 202.9 365.3 202.3C366 201.2 370 200.8 371.2 200.4C375 199.4 378.9 198.5 382.6 197.3C382.3 198.4 382.1 199.6 381.7 200.7C379.5 206.2 376.3 211.2 372.3 215.6C371.2 216.7 370 217.8 368.5 217.8C367.9 219.3 367.6 221 367.6 222.6C365.4 216.9 360.1 212.4 354.1 211C354.4 213.7 355.5 216.4 357.3 218.4H358.9V221.8C358.1 221.8 357.3 222 356.6 222.1C355.7 222.9 354.4 223.5 353.7 224.5C353.5 224.8 352.7 227.3 353.5 227.3H344.6C344.8 226.3 345 225.4 345.2 224.4C344.2 223.6 343.2 222.6 342.2 221.9C341.4 221.4 340.5 221.6 339.6 221.5C339.5 220.6 339.6 219.7 339.5 218.8C342.4 217 344.2 213.9 344.5 210.5C338.3 211.8 332.9 216.3 330.7 222.3C330.5 220.6 330.2 218.9 330 217.3C322.5 213.5 317 205.9 315.7 197.6C315.7 197.9 321.3 198.5 321.9 198.6C324.3 199 326.6 199.4 329 199.8C330.5 200.1 332.2 200.5 333 201.8C333.3 202.2 333.4 202.8 333.5 203.3C333.9 205.1 334.4 206.9 334.8 208.7C336.8 206.7 339.3 205.2 342 204.5C342.2 204.4 342.6 204.4 342.8 204.4C342.8 202.5 342.7 200.5 342.7 198.5C342.5 198.6 342.1 198.5 341.9 198.2C341.7 198 341.7 197.7 341.6 197.4C341.4 196.2 341.1 194.6 342.2 194.1C343.8 193.3 347.5 193.6 347.6 196C347.6 196.9 347.2 197.7 346.8 198.5C345.5 201.2 345.3 204.5 346.3 207.3C346.6 206.5 347 205.7 347.8 205.2C348.8 204.6 350.3 204.9 351.2 205.7C352.1 206.5 352.7 207.6 353.2 208.7C353.2 205.1 353.1 201.5 353.1 197.8C351.9 198.1 350.6 197.1 350.6 195.9C350.4 193.2 357.1 193.5 357.1 193.7Z" fill="#D1D1D1"/>
<path d="M365.6 201.6L363.2 208L356.3 204.1L356.5 195L356.6 194.4L351.1 194.3L351.3 198.2L353 199.7L352.7 206.6L345.8 207V199.1L347.5 198.1L347.4 194.2L341.9 194.3L342 194.9L342.2 204L335.3 207.9L332.9 201.5L315.2 197.5C315.2 197.5 319.1 208.9 323.1 212.3C327.1 215.7 329.9 217.3 329.9 217.3L330.4 222C330.4 222 336.5 212.9 343.5 210.8L343.8 213.6C343.1 215.6 341.8 218 339.2 218.4V221.6L344.8 224.2L345 226.5L344.3 226.9H345V227.1L349.1 227L353.2 227.1V226.9H353.9L353.2 226.5L353.4 224.2L359 221.6V218.4C356.4 218 355.1 215.6 354.4 213.6L354.7 210.8C361.7 212.9 367.8 222 367.8 222L368.3 217.3C368.3 217.3 371.1 215.7 375.1 212.3C379.1 208.9 383 197.5 383 197.5L365.6 201.6Z" fill="#858ED7"/>
<path d="M365.7 203.4L382.2 199.7V197.5L365.1 201.8L365.7 203.4ZM332.6 203.4L316.1 199.7V197.5L333.2 201.8L332.6 203.4Z" fill="#45519B"/>
<path d="M365.7 217.8C373.2 214 378.8 206.5 380.3 198.3C379.4 198.5 378.5 198.6 377.6 198.7C376.8 206.4 371.8 213.6 364.7 216.7C365.1 217 365.3 217.5 365.7 217.8ZM332.6 217.8C325.1 214 319.5 206.5 318 198.3C318.9 198.5 319.8 198.6 320.7 198.7C321.5 206.4 326.5 213.6 333.6 216.7C333.2 217 333 217.5 332.6 217.8Z" fill="#45519B"/>
<path d="M364.1 215.8C369.4 212.8 373.1 207.2 373.9 201.2V200.4C373 200.7 372 200.6 371.1 200.9C371 206.6 368 212.2 363.2 215.3C363.5 215.4 363.8 215.6 364.1 215.8ZM334.4 215.8C329.1 212.8 325.4 207.2 324.6 201.2V200.4C325.5 200.7 326.5 200.6 327.4 200.9C327.5 206.6 330.5 212.2 335.3 215.3C335 215.4 334.7 215.6 334.4 215.8ZM353.2 200.5C354.1 200.5 354.9 200.4 355.8 200.4V198.4H353.5C353.4 199.1 353.2 199.8 353.2 200.5ZM342.8 200.5C343.7 200.5 344.5 200.4 345.4 200.4V198.4H343.1C343 199.1 342.8 199.8 342.8 200.5ZM344.4 207.8C344.3 208.6 344.2 209.4 344.1 210.1C344.1 210.1 343.5 209.8 343.5 209.7C343.3 209.6 343.1 209.4 342.9 209.2C342.3 208.7 341.9 208 341.2 207.6C340.5 207.1 340 207.2 339.2 207.4C337.9 207.8 337.1 208.4 335.5 209.7C335.3 209.6 335.2 209.5 335.1 209.2C335 208.9 334.9 208.6 335.1 208.3C335.2 208.1 335.4 208 335.6 207.9C336.1 207.6 336.6 207.4 337 207.1C337.1 207 338 206.4 338 206.3C339.3 205.5 340.7 204.7 342 203.9C342.1 203.8 342.3 203.7 342.4 203.7C342.5 204.5 342.8 205.2 343.1 205.9C343.2 206.2 343.4 206.5 343.6 206.8C343.8 207.1 344.4 207.7 344.4 207.8ZM354 207.7C354.1 208.5 354.2 209.3 354.3 210C354.3 210 354.9 209.7 354.9 209.6C355.1 209.5 355.3 209.3 355.5 209.1C356.1 208.6 356.5 207.9 357.2 207.5C357.9 207 358.4 207.1 359.2 207.3C360.5 207.7 361.3 208.3 362.9 209.6C363.1 209.5 363.2 209.4 363.3 209.1C363.4 208.8 363.5 208.5 363.3 208.2C363.2 208 363 207.9 362.8 207.8C362.3 207.5 361.8 207.3 361.4 207C361.3 206.9 360.4 206.3 360.4 206.2C359.1 205.4 357.7 204.6 356.4 203.8C356.3 203.7 356.1 203.6 356 203.6C355.9 204.4 355.6 205.1 355.3 205.8C355.2 206.1 355 206.4 354.8 206.7C354.6 207.1 354 207.6 354 207.7Z" fill="#45519B"/>
<path d="M337.4 212.7C339.5 210.9 342.1 209.6 344.8 208.9C344.5 208.5 344.2 208 343.9 207.5C341.2 208.2 338.6 209.6 336.7 211.6C336.9 212 337.1 212.4 337.4 212.7ZM361.3 212.9C359.4 211 356.3 209.6 354.2 209.2C354 208.8 354.3 208 354.8 207.8C355.3 207.7 355.8 207.8 356.2 208C358.4 208.8 360.5 210 362.2 211.5C362 212 361.6 212.4 361.3 212.9ZM345.7 212L348.9 218.6H357.7L352.4 211.4L350 215.7L345.7 212ZM339.3 220.3H359V221.8H339.3V220.3Z" fill="#45519B"/>
<path d="M343 222.9C343.8 223.8 344.7 224.7 345.5 225.6C347.5 224.5 350.1 224.7 352 226C353.9 224.4 355.8 223 358.1 222C353.1 221.2 348 221.7 343 222.9Z" fill="#45519B"/>
<path d="M352.1 198.3C351.8 198.3 351.5 198.3 351.3 198.1C351.2 198 351.2 197.8 351.2 197.6C351.1 196.5 351 195.3 351 194.2C352.6 193.7 354.3 193.5 355.9 193.4C356.2 193.4 356.6 193.4 356.9 193.7C357.1 193.9 357.1 194.3 357.1 194.7C357.1 195.4 357 196.1 357 196.8C357 197.5 357.1 197.9 356.3 198L352.1 198.3ZM342.7 198.6C342.4 198.6 342.1 198.6 341.9 198.4C341.8 198.3 341.8 198.1 341.8 197.9C341.7 196.8 341.6 195.6 341.6 194.5C343.2 194 344.9 193.8 346.5 193.7C346.8 193.7 347.2 193.7 347.5 194C347.7 194.2 347.7 194.6 347.7 195C347.7 195.7 347.6 196.4 347.6 197.1C347.6 197.8 347.7 198.2 346.9 198.3L342.7 198.6ZM345 209.5C346.5 211.4 347.9 213.3 349.4 215.2C351.1 213.3 352.6 211.2 353.9 208.9L349.4 203.2C347.8 205.3 346.5 207.3 345 209.5Z" fill="#E5CD78"/>
<path d="M188.9 365.3C189.8 365 190.6 364.8 191.5 364.5C192.6 365.1 193.7 365.7 194.9 366.3C196.2 364.4 197.3 362.5 198.6 360.7C199.5 361.9 201.1 362.5 202.6 362.3C204.1 362.2 205.5 361.5 206.9 360.9L274.3 333.3C278.6 330.6 281.6 325.6 282.3 320.5C282.9 315.4 281.2 310.1 277.7 306.4C272.7 301.1 264.6 299.1 257.9 302L225.5 309.9L221.9 308.5L187.9 308L158.1 310L131.1 303.6C123.2 298.6 114.4 297 107.4 301.9C100.5 306.8 97.8 316.9 101.4 324.6C103.8 329.6 109 333 114.3 334.5L165.8 358.8C168.6 358.8 171.3 357.7 173.6 356.2C174.9 355.4 176 354.5 177.2 353.5C178.2 352.7 179.3 351.5 180.6 351.3C181.2 351.2 181.9 351.4 182.4 351.8C183.1 352.4 183.2 353.5 183.6 354.3C184.2 355.5 184.8 356.8 185.4 358.1C186.5 360.4 187.7 362.8 188.9 365.3Z" fill="#383333"/>
<path opacity="0.4" d="M194.2 351.2C195.7 353.4 199.3 354.8 202 354.9C204.7 355 207.3 354.2 209.9 353.4C229.1 347.5 248.1 340.7 266.7 333C270.1 331.6 273.5 330.2 276.4 327.9C279.3 325.7 281.6 322.5 282.1 318.9C283.5 322 281.9 326 279.5 328.4C277.1 330.9 274 333.4 270.9 334.7C251.7 343.1 232.4 350.4 213.3 358.7C209.6 360.3 203.4 362.5 201.7 362C197.6 360.9 194.9 355 194.2 351.2Z" fill="#161414"/>
<path opacity="0.4" d="M186.4 344C187.3 351.5 192.8 358.3 200 360.8C196 354.9 192.9 348.5 190.6 341.8C189.2 342.5 187.8 343.3 186.4 344ZM233.2 313.5C233.3 313.4 233.4 313.3 233.5 313.3C235.5 311.8 237.9 310.7 240.4 310.6C241.7 310.5 243.3 310.9 243.9 312.1C244.3 312.8 244.1 313.8 243.6 314.4C242.5 315.6 238.9 316 237.4 316.4C234.8 317.2 232.1 317.9 229.5 318.7C229 318.8 228.1 319.4 227.6 319.2C226.6 318.7 227.6 318.4 228 318.1C229.7 316.5 231.4 314.9 233.2 313.5ZM145.2 309.5C148.6 311.1 151.4 314 152.8 317.5C147.7 315.3 142.7 313.1 137.6 310.9C134.8 309.7 134.6 308.6 137.9 308.3C140.4 308 143 308.4 145.2 309.5Z" fill="#161414"/>
<path opacity="0.4" d="M172.7 356C173.9 355.4 175 354.7 176.1 354.1C176.7 353.8 181.8 351.4 181.5 350.7C181.1 349.6 180.6 348.5 180.2 347.4C182.8 344.8 186.3 343.1 189.9 342.5C190.3 340.9 190.6 339.4 191 337.8C188.2 336.7 185.4 335.6 182.7 334.4C184.5 335.8 185.1 338.5 184.4 340.8C183.7 343.1 182.2 344.9 180.3 346.4C176.4 349.6 171.3 351.2 166.3 351.2C160.8 351.1 156.3 348.5 151.4 346.3L115.7 329.8C112.1 328.1 108.5 326.5 105.5 323.9C102.5 321.3 100.1 317.8 99.7001 313.9C98.5001 319.1 101.1 324.4 105 328.2C108.9 332 113.8 334.3 118.7 336.5C130.1 341.8 141.5 347 152.8 352.3C154.8 353.2 156.8 354.2 158.7 355.1C161 356.2 162.8 357.7 165.4 357.9C168.2 358.1 170.5 357.2 172.7 356ZM160.7 308.7C164.2 310.5 168 311.4 171.8 312.1C189.5 315.4 207.9 314.6 225.3 309.9C207.1 307.6 188.6 307 170.3 309.1C167.1 308.9 163.8 308.9 160.7 308.7Z" fill="#161414"/>
<path opacity="0.8" d="M152.1 311.6C157.3 313.4 162.3 314.8 167.7 315.9C182.5 318.8 197.8 319.4 212.8 317.7C215.1 317.4 217.5 317 219.8 316.7C222 316.4 224.1 315.7 226.3 315.1C224.6 316.7 223.8 319 224 321.3C218.1 323.5 212.3 326.2 206.6 329C203.8 330.4 201 331.9 198.3 333.4C196.9 334.2 195.5 335 194.1 335.9C193.6 336.2 190.2 337.9 190.2 338.4C189.9 338.6 186.3 336.3 185.8 336.1C184.2 335.3 182.7 334.4 181.1 333.6C178 331.9 174.9 330.3 171.8 328.6C166 325.5 160.1 321.6 153.8 319.5C154.5 316.7 153.8 313.8 152.1 311.6Z" fill="url(#paint0_linear_202_324)"/>
<path d="M225.9 308.1L228.3 259.4L242.2 287.6L286 308.5C289.9 304.2 292.1 298.9 293.1 292.7L259.6 270.9L252.1 253.1L286 268.3L331.3 252.5L332.8 250.8C328 252 321.7 240.8 327.2 236.7L325.1 235.3L289 244.7L257.6 227L287.8 216C287.8 216 308.1 173.8 308.5 172.7C309.4 169.9 294.5 163.3 292.7 165.6L273.7 196.4L221.2 210.5L212 209.2L207.2 207C204.1 210.7 199.9 213.2 195.1 214C190.4 214.7 185.4 213.7 181.3 211.1C179.4 209.9 178.3 209.3 177.2 207.4C173 209.9 167.7 210.6 162.8 210.1L110.7 196.4L91.7001 165.6C84.9001 166.4 79.3001 169.1 75.1001 174.1L96.5001 215.9L126.7 226.9L94.4001 244.3C91.8001 243.7 89.1001 243.1 86.5001 242.5L70.9001 238.9C68.7001 238.4 66.6001 237.9 64.4001 237.4C63.6001 237.2 62.8001 237 61.9001 236.8C60.9001 236.6 59.7001 235.9 58.7001 236.3C58.1001 236.6 57.6001 237.1 57.5001 237.7C58.2001 237.8 58.7001 238.3 58.9001 239C59.5001 241 58.6001 243.7 57.9001 245.5C56.8001 248.2 55.1001 251.5 51.7001 250.9C51.8001 250.9 52.2001 251.9 52.2001 252.1C52.5001 252.5 52.8001 252.9 53.2001 253.3C53.7001 253.7 54.1001 254 54.7001 254.1C55.4001 254.3 56.2001 254.6 56.9001 254.8C58.9001 255.5 61.0001 256.1 63.0001 256.8C68.2001 258.5 73.4001 260.1 78.6001 261.8L92.7001 266.3C94.5001 266.9 96.4001 267.5 98.2001 268.1L132.5 252.1L125.3 270.4C121.6 272 117.8 273.7 114.1 275.3C110.7 276.8 107.2 278.3 103.8 279.9C102.3 280.6 100.7 281.5 99.0001 281.8C96.7001 282.2 94.4001 283.1 92.4001 284.2C91.6001 284.6 90.8001 285.1 90.7001 285.9C90.6001 286.6 91.1001 287.3 91.7001 287.6C92.2001 287.9 93.0001 287.9 93.5001 288.2C93.9001 288.5 94.1001 289.2 94.3001 289.6C94.9001 290.8 95.4001 292.1 95.8001 293.5C96.2001 294.8 97.0001 297 95.9001 298.1C95.5001 298.5 95.0001 298.8 94.7001 299.2C94.3001 299.9 94.4001 300.9 95.0001 301.4C96.2001 302.5 99.4001 301 100.8 300.5C102.9 299.9 105 299.2 107 298.6C112.3 297 117.7 295.3 123 293.7C127.8 292.2 132.5 290.8 137.3 289.3C138.9 288.8 140.6 288.3 142.2 287.8L156.3 259.1L158.7 309.2L195.8 307.6L225.9 308.1Z" fill="#383333"/>
<path d="M136.2 289C141.3 285.8 138.9 276.9 133.8 274.9C130.8 273.5 126.4 273.6 125 270.1C123.5 271.2 119.6 273.3 117.8 274C124.6 274.9 128.8 285.9 126.8 291.9C129.8 290.8 133.1 290.2 136.2 289Z" fill="#E70000"/>
<path d="M214.9 357.8C215.3 359.5 216.8 360.6 218.4 361.4C220 362.1 221.7 362.6 223.1 363.5C224.5 364.4 225.5 365.8 225.5 367.5C225.7 370.6 224.4 374.2 225.9 377C228.1 381.2 230.2 385.4 232.4 389.5C233 390.7 233.6 391.9 233.8 393.3C233.9 394.6 233.4 396.3 232.1 396.7C228.3 398 224.4 399 220.5 399.5C219 399.7 217.5 399.8 216.1 399.4C214.7 399 213 399.1 213 397.6C212.8 392 211.8 388 210.4 382.5C208.4 374.9 203.1 368.2 196.2 364.3C196.8 364.3 199.1 360.6 199 360.6C199.6 361.1 200.2 361.5 200.9 361.9C203.3 363 206.1 361.4 208.3 360.5C210.3 359.6 212.7 358.6 214.9 357.8Z" fill="#FFE3BE"/>
<path d="M222.2 393.1C221.6 394 221.4 395.1 221.7 396.1C222 397.1 222.8 398 223.7 398.4L225.2 398.1C223.8 396.7 222.6 395 222.2 393.1ZM218.5 394.2C217.9 395.1 217.7 396.2 218 397.2C218.3 398.2 219.1 399.1 220 399.5L221.5 399.2C220 397.8 218.9 396.1 218.5 394.2ZM215.6 394.4C214.8 395.1 214.4 396.2 214.5 397.2C214.6 398.2 215.1 399.2 216 399.8H217.5C216.4 398.2 215.6 396.3 215.6 394.4ZM226.2 392.2C225.6 393.1 225.5 394.3 225.8 395.4C226.1 396.5 226.9 397.4 227.9 397.8C228.3 397.7 228.8 397.6 229.2 397.5C227.9 395.9 226.8 394.1 226.2 392.2Z" fill="#FCCC9F"/>
<path d="M198 364.8C204.1 369.8 208.6 376.6 211.1 384.1C210.4 382.3 209.7 380.5 209.8 378.7C209.8 376.8 210.8 374.8 212.5 374.1C217 372.3 221.6 376.9 224.3 379.9C227.6 383.6 230.1 388.1 231.2 393C231.4 393.8 231.6 394.7 231.3 395.6C231 396.4 230.1 397.1 229.3 396.8C230.6 397.5 232.3 396.7 233 395.5C233.7 394.3 233.6 392.7 233.2 391.3C232.7 389.9 231.9 388.7 231.1 387.5C228.9 383.9 227.2 380 226.2 376C225.7 373.9 225.6 372.3 225.7 370.2C225.8 368.2 225.6 366.1 224.3 364.4C223.2 362.9 221.6 362 219.9 361.2C218.1 360.2 216.3 359.3 214.5 358.3C212.9 357.4 210.7 358.6 209.1 359.4C207.4 360.2 205.8 361.1 203.9 361.5C202.1 361.9 200 361.8 198.6 360.7C197.9 361.9 197.1 363.2 196.4 364.5C196.8 364.6 197.7 364.5 198 364.8Z" fill="#FCCC9F"/>
<path d="M127.9 263.2C131.5 259 147.6 269.7 146.7 277.7L151.9 267.6C153.1 264.7 149.8 252 133 251L127.9 263.2ZM158.6 254.3C158.6 254.3 157.7 254.7 157.2 255.5C154.4 252 147.9 242.5 137.3 241.5L144.1 223.8C144.1 223.8 144.3 227.4 151.6 235.4C159.6 244 158.6 254.3 158.6 254.3Z" fill="#E70000"/>
<path opacity="0.4" d="M124.7 270.4C127.1 272.1 129.8 273.6 132.5 274.7C130.1 269 129.1 266 132.6 253C130.1 258.8 127.1 264.6 124.7 270.4Z" fill="#3F0202"/>
<path d="M143.4 227.7C142.6 224.9 140.4 222.6 137.7 221.5C141 219.1 144.5 217.1 148.2 215.3C147 219.5 144.2 223.4 143.4 227.7ZM76.2 240.1C72.6 239.5 72.1 238.9 68.5 238.3C68.9 244.8 66 254.2 60 255.9C63.6 257 64.2 257.6 67.8 258.7C77.8 261 80.9 241.4 76.2 240.1ZM96.7 245C93.1 244.4 94.2 244.1 90.7 243.5C91.1 250 88.5 260.8 82.5 262.5C86.1 263.6 88.6 264.9 92.3 266.1C100.5 263.4 101.4 246.2 96.7 245ZM106.2 238.4C103.3 240.5 102.4 240.3 99.4 242.4C108 243.7 110.4 256.9 109.2 263.2C112.4 261.4 114.3 260.6 117.3 259.2C122.3 253.9 113.5 238.9 106.2 238.4ZM125.6 254.7C132.4 248.1 120.6 231 114.3 233.6L127.2 226.9C137.1 232.8 138.8 243.6 133.1 251.4L125.6 254.7Z" fill="#E70000"/>
<path opacity="0.4" d="M124 228.8C133.9 228.6 138 240.7 131.2 245.7L98.3 268.3L132.3 253.1L147.8 216.2L124 228.8Z" fill="#3F0202"/>
<path d="M241.2 228.1C242 225.3 244.2 223 246.9 221.9C243.6 219.5 240.1 217.5 236.4 215.7C237.6 219.9 240.4 223.8 241.2 228.1ZM309.4 239.5C313 238.9 313.5 238.3 317.1 237.7C316.7 244.2 319.6 253.6 325.6 255.3C322 256.4 321.4 257 317.8 258.1C307.8 260.4 304.8 240.7 309.4 239.5ZM289.1 244.9C292.7 244.3 291.6 244 295.1 243.4C294.7 249.9 297.3 260.7 303.3 262.4C299.7 263.5 297.2 264.8 293.5 266C285.3 263.3 284.4 246.1 289.1 244.9ZM259.8 255.5C253 248.9 264.8 231.8 271.1 234.4L258.2 227.7C248.3 233.6 246.6 244.4 252.3 252.2L259.8 255.5ZM278.8 238.7C281.7 240.8 282.6 240.6 285.6 242.7C277 244 274.6 257.2 275.8 263.5C272.6 261.7 270.7 260.9 267.7 259.5C262.7 254.2 271.5 239.2 278.8 238.7Z" fill="#E70000"/>
<path opacity="0.4" d="M260.4 228.8C250.5 228.6 246.4 240.7 253.2 245.7L287.4 268L252.1 253.1L236.6 216.2L260.4 228.8Z" fill="#3F0202"/>
<path d="M181 350C178.2 353.1 174.6 355.5 170.7 357C166.9 358.4 162.6 359.1 159.9 362.1C158.5 363.7 157.8 365.7 157.5 367.7C157.2 369.7 157.8 371.5 157.2 373.4C155.9 377.8 153.8 382 151.1 385.8C150.2 387.1 149.2 388.4 148.6 389.9C148.1 391.4 148.1 393.2 149.1 394.5C150 395.6 151.4 396 152.8 396.4C155.2 397 157.5 397.7 159.9 398.3C162 398.9 164.4 399.4 166.4 398.5C168.1 397.7 169.1 396 169.7 394.2C170.2 392.4 170.3 390.6 170.5 388.7C171.6 379.5 176.8 370.9 184.4 365.6C185.6 364.8 187.2 364.3 188.5 363.7C186.1 359.1 183.5 354.6 181 350Z" fill="#FFE3BE"/>
<path d="M167.6 397.4C167.3 397.6 166.9 397.8 166.5 397.8C166.1 397.8 165.7 397.5 165.6 397.1C165.6 396.8 165.7 396.5 165.9 396.4C166.1 396.2 166.4 396.1 166.6 395.9C167.5 395.4 168.2 394.6 168.9 393.9C169.5 395 168.5 396.7 167.6 397.4ZM164 395.6C163.6 395.8 163.1 395.9 162.7 396.2C162.3 396.5 161.9 396.9 162 397.4C162.1 397.9 162.6 398.2 163.1 398.2C163.6 398.2 164 397.9 164.4 397.6C165.3 396.8 165.8 395.6 165.8 394.5C165.8 394.3 165.8 393.8 165.6 393.7C165.4 393.6 165.3 394.1 165.3 394.3C165 394.8 164.5 395.3 164 395.6ZM159 395.2C158.6 395.3 158.1 395.3 157.8 395.7C157.5 396.1 157.8 396.7 158.3 396.9C158.8 397.1 159.3 397 159.7 396.8C160.8 396.4 161.7 395.5 162.1 394.4C162.2 394.2 162.7 393 162.1 393.1C161.9 393.1 161.7 393.6 161.6 393.7C161.4 393.9 161.2 394.1 160.9 394.3C160.3 394.8 159.7 395.1 159 395.2ZM158.8 391.8C158.7 393.4 158 394.9 156.7 395.8C156.3 396.1 155.8 396.4 155.3 396.4C154.8 396.5 154.2 396.3 153.9 396C153.5 395.6 153.4 394.8 154.1 394.7C154.7 394.6 155.3 394.6 155.9 394.3C157.2 393.9 158.2 392.9 158.8 391.8ZM154.4 390.4C153.9 391.5 153 392.5 151.9 393C151.4 393.2 150.8 393.4 150.2 393.2C149.6 393.1 149.1 392.6 149.1 392C148.9 393 148.9 394.2 149.7 394.9C150.4 395.5 151.5 395.6 152.3 395.2C153.1 394.8 153.7 394 154.1 393.1C154.5 392.2 154.3 391.3 154.4 390.4Z" fill="#FCCC9F"/>
<path d="M182.5 359.3C180.5 356.9 177.7 358 175.1 359.8C170.5 362.5 163.7 363.6 163.1 369.8C162.2 379.4 151.1 384.3 148.7 393.8C148.3 389.1 151.6 385.2 153.8 381.4C157.9 375.8 157.6 368.5 160.3 362.5C162.4 359.5 165.8 359.2 168.9 357.9C173.6 356.1 176.9 352.2 181.5 350.4C183.8 354.7 186 359.1 188.3 363.4C188.3 363.5 186.5 364.3 186.3 364.3C184.1 364.5 184 360.6 182.5 359.3Z" fill="#FCCC9F"/>
<path d="M114.9 296.3C118.7 291.9 115.6 279.4 109.9 277.4C107.1 278.5 102.9 280.4 100.1 281.5C103.3 286.9 106.4 293 105.4 299.2C108.9 298.1 111.6 297.4 114.9 296.3Z" fill="#E70000"/>
<path opacity="0.4" d="M96.4 296.5L132.3 284.8C137.8 283 142.6 279.3 145.6 274.3L159.7 251.7L142.1 287.6L97.6 302.1C96.7 302.1 95.7 302.4 94.8 302.1C93.9 301.8 93.2 301 92.9 300.2C94.1 299.8 95.5 299.5 96.7 299.2C96.2 297.4 97.1 298.3 96.4 296.5Z" fill="#3F0202"/>
<path d="M255.7 263.2C252.1 259 236 269.7 236.9 277.7L231.7 267.6C230.5 264.7 233.8 252 250.6 251L255.7 263.2ZM266.7 299C264.6 292.4 266.2 282 274.3 281C277.1 282.1 280.6 285.3 283.4 286.4C278.7 285.1 272.1 300.3 276.3 303.5C272.8 302.4 270 300.1 266.7 299ZM248.3 291C243.2 287.8 245 278.2 250.1 276.2C253.1 274.8 256.8 273.1 260.4 271.2C258.8 272.1 265.7 275.3 267.5 276C258.6 275.2 252.8 288.3 256.1 294.2C253 293.2 251.3 292.2 248.3 291Z" fill="#E70000"/>
<path opacity="0.4" d="M251.7 274.9C255.8 269.4 255.2 266.5 252.7 255.7L259 270.4C256.8 272 254.2 273.5 251.7 274.9Z" fill="#3F0202"/>
<path opacity="0.4" d="M286.8 299.5L251.5 285.3C246.3 283.2 241.9 279.5 238.9 274.7L224.6 251.8L242.2 287.7L284 308C284.9 308 285.9 308.3 286.8 308C287.7 307.7 288.4 306.9 288.7 306.1C287.5 305.7 286.1 305.4 284.9 305.1C285.6 303.2 286.1 301.3 286.8 299.5Z" fill="#3F0202"/>
<path d="M225 254.3C225 254.3 225.9 254.7 226.4 255.5C229.2 252 235.7 242.5 246.3 241.5L239.5 223.8C239.5 223.8 239.3 227.4 232 235.4C224.1 244 225 254.3 225 254.3Z" fill="#E70000"/>
<path d="M325.4 238.3C323.8 243.2 328.5 250.6 331.1 250.1C332.4 250 333.6 249.9 334.9 249.8C337.6 252 341.2 253.1 344.7 253.2C344.6 252.3 344.7 251.2 344.8 250.3C344.9 249.4 345.3 248.4 346.1 247.8C345.7 246.8 345.6 245.7 345.7 244.7C344.8 243.5 344.4 241.9 344.8 240.5C341.5 238.5 338.4 236 335.4 233.5C332.3 235.4 328.8 237.1 325.4 238.3Z" fill="#FFE3BE"/>
<path d="M341.8 241.2C341.4 241.7 341.3 242.4 341.5 243C341.9 244 342.9 244.3 343.2 245.4C343.7 247.3 341.5 248.3 339.9 248.4C337.4 248.4 335.3 246.4 333.9 244.4C333.2 245.3 333 246.6 333.6 247.6C330.9 247.1 329.1 244.9 328.4 242.3C328.1 241.1 328.2 240 328.8 239C329.1 238.5 329.4 238 329.9 237.6C330 237.5 331.3 236.7 331.3 236.6C331.3 236.8 328.7 237.3 328.4 237.4C327.4 237.5 326.5 237.8 325.6 238.3C324.7 242.8 326.3 247.8 329.8 250.9C331.5 251 333.2 250.4 334.6 249.5C336.3 250.2 338.1 250.6 339.7 251.3C341.3 252 343 252.7 344.8 252.6C344.5 251.6 344.6 250.4 345 249.4C345.3 248.5 345.9 247.7 346 246.7C346.1 245.9 345.8 245 345.5 244.2C345.2 243.3 345 242 344.5 241.2C343.8 240.4 342.6 240.3 341.8 241.2Z" fill="#FCCC9F"/>
<path d="M226.6 300.5V309H225.7C218.3 308.6 200.8 307.5 192 308C173.3 309 158.4 309 158.4 309H157.7V300.5C181.1 297.6 204.1 297.6 226.6 300.5ZM226.6 286.8C203.9 283.9 181 283.9 157.7 286.8V274.2C181 271.3 204 271.3 226.6 274.2V286.8ZM226.6 259.4C203.9 256.5 181 256.5 157.7 259.4V254.7C157.7 254.7 160.6 247.6 161.3 246.5C181.7 244.2 201.9 244.2 221.7 246.3C223.9 248.4 226.8 255.2 226.8 255.2L226.6 259.4Z" fill="#E70000"/>
<path opacity="0.4" d="M159.2 252.7L161 292.1C161.4 300 166.8 306.7 174.4 308.7L158.6 309.4L156.2 258.6L159.2 252.7ZM225 252.7L222.3 291.6C221.8 299.2 215.8 305.4 208.2 306.3L191.2 308.2L225.6 309.5L228 258.7L225 252.7Z" fill="#3F0202"/>
<path d="M237.7 221.6C236.5 227.1 229.3 234.5 229.3 234.5C206.6 231.6 177.3 231.9 154.1 234.8C151.5 231.2 146.7 226.8 146.9 223.4C155.2 219.5 170 218 185.6 217.9C187.7 218.5 189.9 218.8 192.2 218.8C194.3 218.8 196.3 218.6 198.2 218.1C213.6 218.5 228.6 220.1 237.7 221.6Z" fill="#E70000"/>
<path d="M316.7 315.3C321.7 316.8 327.2 316.8 332.2 315.4C333.4 315.1 334.7 314.4 334.9 313.2C335 312.5 334.6 311.8 334.1 311.3C333.6 310.8 332.9 310.6 332.2 310.4C330.2 309.8 328 309.6 325.9 309.9C327.7 308.3 329.4 306.5 331.3 304.9C332.3 304 333.5 302.9 333.5 301.5C333.6 300 332.3 298.6 330.8 298.3C329.3 298 327.8 298.6 326.6 299.5C325.4 300.4 324.5 301.7 323.6 302.9C323.4 299.6 323 296.4 322.8 293.1C322.7 292.2 322.7 291.3 322.4 290.5C322.1 289.7 321.5 288.9 320.7 288.6C319.2 288 317.5 289.3 316.9 290.8C316.3 292.3 316.5 294 316.5 295.6C316.5 299 315.9 302.5 314.6 305.7C314.7 302.6 314.2 299.4 313.8 296.3C313.7 295.5 313.6 294.7 313.2 294C312.8 293.3 312 292.7 311.2 292.8C310.3 292.9 309.6 293.7 309.3 294.5C309 295.3 309.1 296.3 309 297.2C308.9 300 308 302.7 306.5 305.1C305 304.4 303.5 303.7 302.1 303C302.9 301 303.3 298.8 303.3 296.6C304.7 296.8 306.4 296.6 307.8 296.4C309.2 296.2 310.6 295.6 311.4 294.5C312.2 293.4 312.4 291.7 311.5 290.6C310.4 289.3 308.4 289.3 306.7 289.5C303.8 290 301 290.8 298.4 292.1C297 292.7 295.8 293.6 294.5 294.3C293.4 294.9 292.1 294 290.8 294.7C289.8 295.2 289.1 296.2 288.5 297.1C287.7 298.4 287.1 299.7 286.6 301.1C286.2 302.2 286 303.4 286.3 304.6C286.7 305.9 287.5 306.2 288.5 306.7C289.6 307.2 290.6 308.1 291.7 308.7C294.2 310 296.9 310.8 299.6 311.7C302.1 312.5 304.6 313.4 307.2 314.2C308.7 314.7 310.3 315.2 311.8 314.7C312.7 315.3 313.6 315.7 314.7 315.8C315.3 315.8 316.1 315.7 316.7 315.3Z" fill="#FFE3BE"/>
<path d="M311.6 312C310.6 311.9 310.2 312.8 308.6 312.6C306.9 311.9 305.2 311.1 303.5 310.4C300.4 309.1 297.3 307.7 294.2 306.4C292.9 305.9 291.6 305.4 290.4 304.7C288.7 303.8 288.3 301.9 288.9 300.1C289.1 299.6 291.4 295.5 291.9 295.9C291.4 295.5 290.8 295.1 290.2 294.7C287.8 296.7 286.1 299.5 285.5 302.6L285.3 302.5L284.7 304.9L285.2 305.1V305.6C285.9 305.7 286.4 305.7 286.9 305.8L308.3 315.1L311.5 314.4L314.5 314.8C312.8 314.8 312.6 312.1 311.6 312ZM320 315.5C321.8 314.7 323.8 313.9 325.5 312.1C327 312 328.5 312.1 330 312.2C332.7 312.3 333.8 313.9 332.3 315.2C333.3 314.4 334.8 314.1 335 312.8C335.2 311.5 334.3 310.1 333 309.8C330.7 309.3 328.3 309.7 326 309.6C324.1 311 321.8 311.8 319.4 312.2C318.9 313.3 318.3 314.4 317.6 315.4C318.3 315.5 319.3 315.5 320 315.5Z" fill="#FCCC9F"/>
<path d="M322.4 311.4C323.1 309.7 323.6 308.1 324.1 306.4C324.4 305.5 325.3 304.9 325.9 304.2L328.3 301.8C328.7 301.4 329.2 300.9 329.7 300.6C330.2 300.3 330.9 300.2 331.5 300.4C332.1 300.6 332.5 301.2 332.4 301.8C332.6 300.9 332.9 300.3 332.6 299.4C332.4 298.6 331.7 298 331 297.7C329.8 297.3 328.9 297.9 327.8 298.5C326.8 299.2 323.1 302.8 322.1 303.5C320.9 306.4 319.9 309.2 318.7 312C320 312.2 321.9 312.5 322.4 311.4ZM312 310.7C312.5 311.4 313.4 311.9 314.3 311.6C315 311.3 315.5 310.1 315.8 309.8C316.3 309.1 316.7 308.4 317.1 307.7C317.9 306.3 318.5 304.7 318.9 303.1C319.3 301.5 319.5 299.9 319.6 298.2C319.6 297.4 319.5 296.6 319.5 295.8C319.5 295 319.2 294.1 319.3 293.2C319.4 292.6 319.8 291.9 320.4 291.8C321 291.7 321.5 292 321.9 292.4C322.3 292.8 322.4 293.4 322.6 293.9C322.9 292.2 322.6 289.8 320.9 288.9C319.7 288.3 318 288.7 317.3 289.8C316.6 290.8 316.6 292 316.7 293.2C316.8 295.8 317 298.4 317.3 300.9C315.3 304.2 313.7 307.6 312 310.7ZM306.7 305.4C306.5 305.7 306.2 306 306 306.2C306.7 306.6 307.1 307.2 308 307.2C309.3 307.1 309.8 306 310.2 304.9C310.6 303.5 311 302.1 311.3 300.7C311.7 298.9 310.6 296 312.3 295.3C313.1 295 313.8 295.9 314.2 296.5C313.9 295.8 314.3 295.1 314.1 294.4C313.9 293.7 313.4 293 312.8 292.7C311.7 292.1 310.2 292.4 309.4 293.4C308.7 294.3 308.7 295.5 308.8 296.5C308.9 297.7 309 298.8 308.9 300C308.5 302 307.9 303.9 306.7 305.4Z" fill="#FCCC9F"/>
<path d="M309.6 293.3C309.8 293.1 309.9 293 310.1 292.9C311 292.3 312.3 292.4 313.1 293C313.2 293.1 313.1 291.3 313.1 291.1C312.5 289.7 311.2 289.3 309.8 289.4C307.9 289.5 306.5 290.8 306.2 292.9C300.8 293.5 293.5 296.9 293.1 303.4C294.9 303.2 296.8 302.9 298.6 302.7C299.8 302.5 301.7 302.8 302.6 301.8C303.5 300.8 302.9 299.2 303.2 298C303.5 296.9 304.6 296.1 305.7 295.8C306.8 295.5 308 295.6 309.1 295.7C308.8 294.8 309 294 309.6 293.3Z" fill="#FCCC9F"/>
<path d="M92.6 288.5C89.9 286.9 87.5 284.5 84.5 283.8C82.1 283.3 79.8 282.7 77.4 282.2C76.1 281.9 74.7 281.6 73.4 281.9C72.1 282.2 70.9 283.4 71 284.7C71.1 285.9 72.1 286.8 73.1 287.4C75.3001 288.7 77.8 289.2 80.3 288.9C80.8 290.9 81.3 293 81.8 295C80.3 295.8 78.7 296.6 77.2 297.3C75.7 295.5 74.8 293.2 74.8 290.9C74.8 289.7 74.9 288.6 74.7 287.4C74.5 286.3 73.7 285.1 72.5 285C71.3 284.8 70.2 285.8 69.8 286.9C69.4 288 69.4 289.2 69.5 290.4C69.7 293.2 69.9 295.9 70 298.7C68.2 296.9 67.2 294.4 66.9 291.8C66.5 289.1 67.8 285.2 66.3 282.9C65.6 281.8 64.3 281 63 281.4C62.1 281.7 61.4 282.5 61.1 283.4C60.8 284.3 60.8 285.3 60.8 286.2V295.7C59.3 294.1 57.6 292.6 55.7 291.4C55.1 291 54.4 290.6 53.6 290.4C52.9 290.2 52 290.3 51.4 290.8C50.5 291.4 50.3 292.7 50.6 293.8C50.9 294.9 51.6 295.7 52.3 296.5C54.1 298.5 56.2 300.4 58.3 302H53.7C52.6 302 51.5 302 50.5 302.5C49.6 303 49 304 48.9 305C48.8 306 49.1 307.4 50.1 307.6C55.5 308.9 61.1 309 66.5 307.8C67.4 308.3 68.4 308.3 69.3 308C70.3 307.7 71.1 307 71.5 306.1C72.5 307 74 307.3 75.4 307.1C76.7 306.9 78 306.4 79.2 305.8C84.4 303.5 89.6 301.1 94.9 298.8C96.9 295.7 95.7 291.6 92.6 288.5Z" fill="#FFE3BE"/>
<path d="M72 304.6C73 304.5 73.4 305.4 75 305.2C76.7 304.5 78.4 303.7 80.1 303C83.2 301.7 84.8 300.9 87.9 299.5C89.2 299 90.5 298.5 91.7 297.8C93.4 296.9 93.8 295 93.2 293.2C93 292.7 92.3 290.1 90 288.1C90.5 287.7 91.1 287.8 91.8 287.8C94.5 289.3 96.3 292.5 96.7 298.7C96 298.8 95.5 298.8 95 298.9L75 307.7L71.8 307L68.8 307.4C70.9 307.3 71.1 304.6 72 304.6ZM63.8 307.9C62 307.1 60 306.3 58.3 304.5C56.8 304.4 55.3 304.5 53.8 304.6C51.1 304.7 50 306.3 51.5 307.6C50.5 306.8 49 306.5 48.8 305.2C48.6 303.9 49.5 302.5 50.8 302.2C53.1 301.7 55.5 302.1 57.8 302C59.7 303.4 62 304.2 64.4 304.6C64.9 305.7 65.5 306.8 66.2 307.8C65.5 307.9 64.5 307.8 63.8 307.9Z" fill="#FCCC9F"/>
<path d="M61.4 303.8C60.7 302.1 60.2 300.5 59.7 298.8C59.4 297.9 58.5 297.3 57.9 296.6L55.5 294.2C55.1 293.8 54.6 293.3 54.1 293C53.6 292.7 52.9 292.6 52.3 292.8C51.7 293 51.3 293.6 51.4 294.2C51.2 293.3 50.9 292.7 51.2 291.8C51.4 291 52.1 290.4 52.8 290.1C54 289.7 54.9 290.3 56 290.9C57 291.6 60.7 295.2 61.7 295.9C62.9 298.8 63.9 301.6 65.1 304.4C63.8 304.5 61.9 304.9 61.4 303.8ZM71.8 303.1C71.3 303.8 70.4 304.3 69.5 304C68.8 303.7 68.3 302.5 68 302.2C67.5 301.5 67.1 300.8 66.7 300.1C65.9 298.7 65.3 297.1 64.9 295.5C64.5 293.9 64.3 292.3 64.2 290.6C64.2 289.8 64.3 289 64.3 288.2C64.3 287.4 64.6 286.5 64.5 285.6C64.4 285 64 284.3 63.4 284.2C62.8 284.1 62.3 284.4 61.9 284.8C61.5 285.2 61.4 285.8 61.2 286.3C60.9 284.6 61.2 282.2 62.9 281.3C64.1 280.7 65.8 281.1 66.5 282.2C67.2 283.2 67.2 284.4 67.1 285.6C67 288.2 66.8 290.8 66.5 293.3C68.5 296.6 70.1 299.9 71.8 303.1ZM77.1 297.7C77.3 298 77.6 298.3 77.8 298.5C77.1 298.9 76.7 299.5 75.8 299.5C74.5 299.4 74 298.3 73.6 297.2C73.2 295.8 72.8 294.4 72.5 293C72.1 291.2 73.2 288.3 71.5 287.6C70.7 287.3 70 288.2 69.6 288.8C69.9 288.1 69.5 287.4 69.7 286.7C69.9 286 70.4 285.3 71 285C72.1 284.4 73.6 284.7 74.4 285.7C75.1 286.6 75.1 287.8 75 288.8C74.9 290 74.8 291.1 74.9 292.3C75.3 294.4 75.9 296.2 77.1 297.7Z" fill="#FCCC9F"/>
<path d="M74.2001 285.7C74.0001 285.5 73.9001 285.4 73.7001 285.3C72.8001 284.7 71.5001 284.8 70.7001 285.4C70.6001 285.5 70.7001 283.7 70.7001 283.5C71.3001 282.1 72.6001 281.7 74.0001 281.8C75.9001 281.9 77.3001 283.2 77.6001 285.3C83.0001 285.9 90.3001 289.3 90.7001 295.8C88.9001 295.6 87.0001 295.3 85.2001 295.1C84.0001 294.9 82.1001 295.2 81.2001 294.2C80.3001 293.2 80.9001 291.6 80.6001 290.4C80.3001 289.3 79.2001 288.5 78.1001 288.2C77.0001 287.9 75.8001 288 74.7001 288.1C75.0001 287.2 74.8001 286.3 74.2001 285.7Z" fill="#FCCC9F"/>
<path d="M59.3 238.8C57.8 238.6 55.1 238.2 53.6 238C51.7 234.3 49.6 230.8 47.7 227.1C45.9 226 44 225 42.2 223.9C41.1 223.2 39.9 222.6 38.6 222.4C37.3 222.3 35.8 222.9 35.4 224.2C38.3 228.2 41.1 232.1 44 236.1C45.8 238.7 46.7 242 49.6 243.1C49.7 244.1 49.4 245.1 48.8 245.9C48.2 246.7 47.4 247.4 46.7 248C45.3 249.2 43.9 250.3 42.5 251.5C46.2 251.3 51.4 250.9 55.1 250.7C57.3 246.9 58.4 243.1 59.3 238.8Z" fill="#FFE3BE"/>
<path d="M56.4 238.1C55.3 238 54 238.1 53 238.4C53.7 239.1 54.6 239.4 55.3 240.2C56 241.2 56.4 242.5 56.1 243.8C55.7 245.4 54.7 247.4 53.1 248.2C52.2 248.6 51.2 248.6 50.3 248.2C49.8 248.8 49.6 250 49.4 250.7C51.5 250.8 53.5 250.9 55.6 251C58.4 247.9 60.4 242.8 59.5 238.6C58.9 238.6 58.5 238.4 57.9 238.3C57.4 238.2 56.9 238.2 56.4 238.1Z" fill="#FCCC9F"/>
<path d="M40.6 223.5C39.9 223.4 39.3 224 39.2 224.7C39.1 225.4 39.5 226 39.9 226.5C40.3 227 41 227.3 41.6 227.6C43 228.3 44.5 229 45.9 229.8C46.6 230.2 46.6 230.8 46.6 231.6C46.7 233.3 46.1 234.9 46.5 236.6C46.8 238.2 47.7 239.6 49 240.5C49.9 241.2 51.2 241.8 51.9 242.7C52.3 243.2 52.5 243.9 52.2 244.4C51.9 245 51.2 245.2 50.7 245.7C50.2 246.2 50 246.9 50.2 247.6C50.4 248.3 50.9 248.8 51.6 249C50.3 249.6 48.9 250.2 47.6 250.9C47.2 251.1 46.8 251.3 46.4 251.3C45.8 251.4 45.6 251 45.2 250.8C44.7 250.6 44.1 250.7 43.6 250.6C43.8 250.6 44.9 249.8 45.1 249.6C45.8 249.2 46.5 248.7 47.1 248.1C48 247.3 48.6 246.1 48.7 244.9C48.7 243.5 47.9 242.2 47.1 241C44.2 236.7 41.3 232.5 38.3 228.2C37.8 227.5 37.2 227.2 36.7 226.5C36.2 225.8 35.9 225 35.9 224.1C35.9 223.2 36.5 222.4 37.3 222.1C37.9 221.9 38.5 222 39 222.2C39.5 222.4 40.1 223.2 40.6 223.5Z" fill="#FCCC9F"/>
<path d="M177 207C181 203.9 183.4 199 183.4 193.9C188.7 196 194.8 195.9 200.1 193.9C200.5 199.1 203.1 203.8 207.3 206.9C204.2 210.5 199.6 212.9 194.9 213.7C190.2 214.5 185.1 213.6 181 211.2C179.3 210.3 177.4 208.9 177 207Z" fill="#FFE3BE"/>
<path d="M179.2 205.9C182.3 209.9 187.2 212.3 192.3 212.3C197.3 212.3 202.3 209.8 205.4 205.9C205.9 206.4 206.4 206.9 206.9 207.5C203.3 212 197.4 214.5 191.7 214.5C186 214.5 180.3 211.8 176.7 207.4C177.4 206.8 178.4 206.4 179.2 205.9Z" fill="#FFD8A9"/>
<path d="M201 197.4C200.7 196.1 200.6 195.2 200 194.2C200.2 194.6 195 195.5 194.5 195.5C192.3 195.6 190.1 195.4 188 195C186.6 194.7 185.4 194.2 184 194.1C183.7 195.2 183.5 196.4 183.2 197.5C186.1 202.2 197.8 202.7 201 197.4Z" fill="#FCCC9F"/>
<path d="M170.7 154.9C169 153.9 166.6 154.7 165.7 156.4C165.1 157.5 165.2 158.8 165.2 160C165.3 162 165.4 164 166.3 165.7C167.2 167.4 169.2 168.8 171.1 168.3C171.2 164.8 171.4 161.3 171.5 157.8C171.4 156.8 171.1 155.8 170.7 154.9Z" fill="#FFE3BE"/>
<path d="M168.2 155.1V161.5C168.2 163.3 168.8 165.1 169.9 166.5C170.2 166.9 170.5 167.3 170.8 167.6C170.7 163.3 170.7 159 170.6 154.7C169.8 154.7 169 155.1 168.2 155.1Z" fill="#FCCC9F"/>
<path d="M213.1 155C214 154.8 215 154.5 215.9 154.5C216.9 154.5 217.9 154.9 218.5 155.7C219.2 156.6 219.2 157.8 219.2 158.9C219.2 161 219.1 163.3 218.3 165.2C217.5 167.1 215.5 168.8 213.3 168.6C213.3 164 213.1 159.5 213.1 155Z" fill="#FFE3BE"/>
<path d="M181.2 132.4L206 132.7L211.6 136.8L213.4 142.7L212.9 179L207.7 188.9L198.9 194.5L189.2 195.4L178.4 191.1L171.8 182.1L170.7 170L171.1 139.9L174 135.3L181.2 132.4Z" fill="#FFE3BE"/>
<path d="M194.4 173.4L194.5 171.3L194.6 158.4C194.5 157.9 194.7 157.3 195.1 157.1C195.5 156.8 196.1 156.9 196.5 157.3C196.9 157.7 197 158.4 196.8 158.8L196.7 172.6C196.4 174 195.4 175.3 194 175.9C192.6 176.5 191 176.2 189.8 175.3C188.6 174.4 187.9 172.9 188.1 171.4C188.2 172.3 188.3 173.2 188.9 173.9C189.5 174.7 190.7 175 191.7 174.8C192.8 174.7 193.7 174.1 194.4 173.4ZM209.3 134.5L208.5 177.6C208.1 188.8 196.3 195.2 196.3 195.2C196.3 195.2 209 190.9 211.4 183.7C213.8 176.5 213.1 153.3 213.1 153.3L213.2 139.7L209.3 134.5Z" fill="#FCCC9F"/>
<path d="M166.9 154.6H170.5L171.1 139.9L175.5 134.4L179.5 132.6H205.5L211 136.1L213.2 139.8L213.5 154L217.4 154.1V131.1L212.9 124.2L205.6 121.6L198.6 120.9L186 118.4L175.6 114.8L174.2 119.3L174.9 123L171.8 124.5L168 129.3L166.8 136.1L166.9 154.6Z" fill="#FFBC47"/>
<path d="M176.8 133L170.8 139.1C172.8 137.1 170.5 129.9 173.3 129.9L205.4 129.8C210.8 129.9 215.1 134.2 215.2 139.6L215.5 154.9H213.5L213.1 142.2C213 137.7 209 133 204.4 132.8C194.6 132.3 176.8 133 176.8 133ZM176 115.2C176.7 119 181.2 122.5 188.2 125.4C184 125.4 180.1 126.1 176.3 127.7C174.8 126 174.1 123.9 174 121.6C173.8 119.3 174.7 117.1 176 115.2Z" fill="#F99B3E"/>
<path d="M177.7 127.4C175.8 127.8 174.3 129.2 173.4 130.9C172.5 132.6 172.1 134.5 171.7 136.3C170.7 142.1 170.4 148.1 170.8 154C169.5 154 168.2 154.1 166.9 154.1C166.9 147.1 166.7 140.1 166.7 133.1C166.7 128.7 170.2 124.5 174.4 123.1C175.1 124.7 176.4 126.4 177.7 127.4Z" fill="#F99B3E"/>
<path d="M122.3 117.9C126.7 117.9 131.2 118 135.6 118C135.5 113.6 135.4 109.2 135.3 104.7C131 104.7 126.8 104.6 122.6 104.6C122.5 109 122.5 113.4 122.3 117.9Z" fill="#FFF7E6"/>
<path d="M122.5 84.6H135.7V97.8H122.5V84.6ZM122.5 104.6H135.7V117.8H122.5V104.6Z" stroke="#C1BCB6" stroke-width="2" stroke-miterlimit="10" stroke-linecap="round" stroke-linejoin="round"/>
<path d="M125.9 90.9L129.1 94.9L132.7 88.4M149.8 86.8H173M141.1 86.8H145.7M163.4 92.4H173M141.1 92.4H157.3M141.1 108H150.8M141.1 113.7H165.7M153.9 108H168.3" stroke="#C1BCB6" stroke-width="2" stroke-miterlimit="10" stroke-linecap="round" stroke-linejoin="round"/>
<path d="M28.4 250.7L26.5 248.1L25.9 247.4" stroke="black" stroke-width="2" stroke-miterlimit="10" stroke-linecap="round" stroke-linejoin="round"/>
<path opacity="0.1" d="M12.7001 227.8C12.7001 228.4 12.9001 229 13.1001 229.5C12.9001 226.3 16.2001 224.9 18.4001 223.4C20.9001 221.7 23.2001 220 25.7001 218.3C26.7001 217.6 28.2001 217.7 28.9001 218.7L46.4001 243.3C47.1001 244.2 47.0001 245.3 46.3001 246.2L44.1001 249.1L48.7001 245.8L48.2001 242.9L29.3001 215.9H26.5001C25.0001 216.9 23.6001 217.9 22.1001 218.8C20.4001 219.9 18.7001 221 17.0001 222.2C15.3001 223.3 13.3001 224.2 12.8001 226.3C12.8001 226.9 12.7001 227.4 12.7001 227.8Z" fill="#FFF7E6"/>
<path d="M23.4001 243.9L12.7001 229.5C11.6001 228 11.9001 226 13.4001 224.9L25.6001 216.3C27.1001 215.3 29.1001 215.6 30.1001 217.1L43.8001 236.1M48.0001 242.5L48.4001 243C49.3001 244.4 49.0001 246.2 47.6001 247.2L34.6001 256.3C33.9001 256.8 32.9001 256.7 32.3001 255.9L31.5001 254.9M342.3 170.4V29C342.3 26.7 342.6 24.5 343.2 22.4L349.3 1.5L355.4 22.4C356 24.5 356.3 26.8 356.3 29V170.4L359.7 174.4V180.6L354.8 185.8V193.9H351.2M347.5 193.9H343.8V185.8L338.9 180.6V174.4L342.2 170.4" stroke="black" stroke-width="2" stroke-miterlimit="10" stroke-linecap="round" stroke-linejoin="round"/>
<path d="M358.1 177.6L352 170.4V31L349.3 18.6L346.5 31V170.4L340.6 177.5L347.5 184.3V193.9" stroke="black" stroke-width="2" stroke-miterlimit="10" stroke-linecap="round" stroke-linejoin="round"/>
<path d="M357.9 177.5L351 184.3V193.9" stroke="black" stroke-width="2" stroke-miterlimit="10" stroke-linecap="round" stroke-linejoin="round"/>
<path d="M349.3 171.4L352.6 177.4L349.3 181.2L345.9 177.4L349.3 171.4Z" stroke="#749393" stroke-width="2" stroke-miterlimit="10" stroke-linecap="round" stroke-linejoin="round"/>
<path d="M351 193.9H356.8V198.2H351V193.9ZM341.8 198.2V193.9H347.5L347.6 198.2H341.8Z" stroke="black" stroke-width="2" stroke-miterlimit="10" stroke-linecap="round" stroke-linejoin="round"/>
<path d="M355.9 198.1V205.4L353.2 209M342.6 198.1V205.4L345.3 209M330.8 223.1L329.9 217.5C319.9 213.6 315.3 197.3 315.3 197.3L333.4 201.9C333.9 210.1 337.5 213.8 337.5 213.8M367.7 223.1L368.6 217.5C378.6 213.6 383.2 197.3 383.2 197.3L365.1 201.9C364.6 210.1 361 213.8 361 213.8M349.2 202.4L353.5 209.5L349.3 215.9L345.1 209.5L349.2 202.4Z" stroke="black" stroke-width="2" stroke-miterlimit="10" stroke-linecap="round" stroke-linejoin="round"/>
<path d="M320.7 198.6C322.5 211.6 333.3 216.7 334.2 217.2L333.6 217.9M377.8 198.6C376 211.6 365.2 216.7 364.3 217.2L364.9 217.9M335.7 215.4C335.7 215.4 327.7 210.9 327.7 200.4M362.9 215.4C362.9 215.4 370.9 210.9 370.9 200.4" stroke="black" stroke-width="2" stroke-miterlimit="10" stroke-linecap="round" stroke-linejoin="round"/>
<path d="M345.6 210.6C345.6 210.6 335.3 211.7 330.8 223.1M353 210.6C353 210.6 363.3 211.7 367.8 223.1M342.6 204.2C342.6 204.2 337.1 205.8 334.9 208.7M355.9 204.2C355.9 204.2 361.4 205.8 363.6 208.7M344 207.3C344 207.3 339 208.8 336.1 211.8M354.5 207.3C354.5 207.3 359.5 208.8 362.4 211.8" stroke="black" stroke-width="2" stroke-miterlimit="10" stroke-linecap="round" stroke-linejoin="round"/>
<path d="M353.5 209.8C353.5 209.8 353.3 215.6 358.2 218.6M345.1 209.8C345.1 209.8 345.3 215.6 340.4 218.6M352.8 208.3V198.1M345.7 208.3V198.1M352.6 225.2L358.3 221.8M345.9 225.2L340.2 221.8M359.274 218.636V221.836H339.274V218.636H359.274ZM349.1 231.9C347.5 231.7 344.9 229.6 344.9 229.6V226.3C344.9 226.3 347.3 224.6 349.1 224.6C350.9 224.6 353.3 226.3 353.3 226.3V229.6C353.3 229.6 350.6 231.7 349.1 231.9Z" stroke="black" stroke-width="2" stroke-miterlimit="10" stroke-linecap="round" stroke-linejoin="round"/>
<path d="M352 237.8C352.2 237.7 352.4 237.5 352.6 237.4C353.1 237.1 353.3 236.8 353.3 236.8V233.5C353.3 233.5 350.8 231.8 349.1 231.8C347.3 231.8 344.9 233.5 344.9 233.5V236.8C344.9 236.8 347.4 238.7 348.9 239.1M344.8 240.8V244.1C344.8 244.1 345.1 244.3 345.5 244.6C346.4 245.2 348 246.2 349 246.4C350 246.3 351.6 245.3 352.5 244.6C353 244.3 353.2 244.1 353.2 244.1V243.2M349.1 253.8C347.5 253.6 344.9 251.5 344.9 251.5V248.2C344.9 248.2 347.3 246.5 349.1 246.5C350.9 246.5 353.3 248.2 353.3 248.2V251.5C353.3 251.5 350.6 253.6 349.1 253.8Z" stroke="black" stroke-width="2" stroke-miterlimit="10" stroke-linecap="round" stroke-linejoin="round"/>
<path d="M345.6 244.7V247.7M352.6 244.7V247.7M352.6 237.5V237.4M345.6 230.3V232.9M352.6 230.3V232.9M345.6 252V255M352.6 252V255M344.2 268.4L346.4 274.7H351.8L354 268.4M349.1 261C347.5 260.8 344.9 258.7 344.9 258.7V255.4C344.9 255.4 347.3 253.7 349.1 253.7C350.9 253.7 353.3 255.4 353.3 255.4V258.7C353.3 258.7 350.6 260.9 349.1 261Z" stroke="black" stroke-width="2" stroke-miterlimit="10" stroke-linecap="round" stroke-linejoin="round"/>
<path d="M352.5 259.4C352.5 259.4 353.1 264.4 356.6 265.2V266.4C356.6 266.4 354 269.3 351 269.3L349.1 268.2L347.2 269.3C344.2 269.3 341.6 266.4 341.6 266.4V265.2C345.1 264.4 345.7 259.4 345.7 259.4M341.6 265.1H356.6" stroke="black" stroke-width="2" stroke-miterlimit="10" stroke-linecap="round" stroke-linejoin="round"/>
<path d="M349.3 250.4C348.5 258.9 362.2 254 360.4 247.7Z" fill="#FFE3BE"/>
<path d="M349.7 251.1C349.6 251.6 349.8 252.1 350.1 252.4C350.5 252.7 350.9 252.9 351.4 253C354 253.7 356.8 253.4 359.1 252.3C360.2 251.7 360.3 249.8 360.2 248.6C357.6 251.2 353.2 252.4 349.7 251.1Z" fill="#FCCC9F"/>
<path d="M349.3 250.4C348.5 258.9 362.2 254 360.4 247.7" stroke="black" stroke-width="2" stroke-miterlimit="10" stroke-linecap="round" stroke-linejoin="round"/>
<path d="M17.8001 226.4C18.5001 226.9 19.4001 227 20.3001 226.8C21.1001 226.6 21.9001 226.2 22.6001 225.8C23.4001 225.3 24.3001 224.8 24.9001 224C25.5001 223.2 25.8001 222.1 25.4001 221.3C25.9001 220.3 27.3001 219.9 28.3001 220.3C29.1001 220.6 29.7001 221.3 30.1001 222C30.6001 222.7 31.0001 223.5 31.6001 224.1L45.3001 243.6L44.8001 245.5L34.4001 252.6L32.1001 249.9L30.5001 249.2L16.1001 229.3L17.8001 226.4Z" fill="#0C0C0C"/>
<path opacity="0.3" d="M29.8 248.8L38.6001 233.3L40.8 237.1L32.9 250.6L29.8 248.8Z" fill="#FFF7E6"/>
<path d="M348.4 248.7C353.9 255.6 362 248.2 360.4 244.1Z" fill="#FFE3BE"/>
<path d="M349.2 248.9C352.6 250.4 356.9 249.8 359.7 247.3C359.7 246.9 359.8 246.5 359.8 246.1C356.3 247.4 352.8 248.3 349.2 248.9Z" fill="#FCCC9F"/>
<path d="M348.4 248.7C353.9 255.6 362 248.2 360.4 244.1" stroke="black" stroke-width="2" stroke-miterlimit="10" stroke-linecap="round" stroke-linejoin="round"/>
<path opacity="0.2" d="M22.7001 238.4L30.6001 222.7L34.2001 227.9L25.9001 242.9L22.7001 238.4Z" fill="#FFF7E6"/>
<path opacity="0.4" d="M19.9001 234.4L25.7001 223.7L23.0001 225L18.6001 232.6L19.9001 234.4Z" fill="#FFF7E6"/>
<path d="M349.7 248.2C348 248.4 346.7 247.4 346.4 246C346.3 245.4 346.3 244.8 346.5 244.2C346.8 243.3 347.4 243 348.1 242.5C348.8 243.5 350.1 243.9 351.4 243.9C352.6 243.8 353.8 243.3 354.9 242.8C356.1 242.2 357.2 241.5 358.4 240.8C359.5 240.1 360.5 239.5 361.2 238.4C362.2 240.4 361.9 243 360.4 244.6C358.9 246.3 356.6 247.2 354.5 247.7C352.8 247.9 351.3 248 349.7 248.2Z" fill="#FFE3BE"/>
<path d="M347.4 243.2C346.8 243.5 346.6 244.2 346.9 244.8C347.1 245.4 347.7 245.8 348.3 246C348.9 246.2 349.5 246.2 350.2 246.1C352.4 246 354.5 245.6 356.5 244.7C358.5 243.8 360.3 242.4 361.4 240.6C361.3 239.9 361.2 239.1 361.2 238.4C359.6 240.4 357.9 242.4 355.6 243.4C353.3 244.5 350.4 244.5 348.4 242.9C348 243 347.6 243.1 347.4 243.2Z" fill="#FCCC9F"/>
<path d="M360.6 237.2C364.4 244 357.8 247.8 349.7 248.2C348 248.4 346.7 247.3 346.4 246C346.2 245.1 346.4 243.4 348.1 242.3" stroke="black" stroke-width="2" stroke-miterlimit="10" stroke-linecap="round" stroke-linejoin="round"/>
<path d="M213.5 154.8H216.6C218.3 154.8 219.7 156.3 219.5 158L218.9 164.2C218.7 166.6 216.6 168.4 214.2 168.4H213.5M192.2 195.5C180.5 195.5 171 186 171 174.3V142.7C171 137 175.6 132.5 181.2 132.5H203.2C208.9 132.5 213.4 137.1 213.4 142.7V174.3C213.4 186 203.9 195.5 192.2 195.5Z" stroke="black" stroke-width="2" stroke-miterlimit="10"/>
<path d="M171.1 154.8H168C166.3 154.8 164.9 156.3 165.1 158L165.7 164.2C165.9 166.6 168 168.4 170.4 168.4H171.1" stroke="black" stroke-width="2" stroke-miterlimit="10"/>
<path d="M202.3 162.8C203.239 162.8 204 162.039 204 161.1C204 160.161 203.239 159.4 202.3 159.4C201.361 159.4 200.6 160.161 200.6 161.1C200.6 162.039 201.361 162.8 202.3 162.8Z" fill="black"/>
<path d="M180.7 162.8C181.639 162.8 182.4 162.039 182.4 161.1C182.4 160.161 181.639 159.4 180.7 159.4C179.761 159.4 179 160.161 179 161.1C179 162.039 179.761 162.8 180.7 162.8Z" fill="black"/>
<path d="M194.5 158.1V171.7C194.5 173.1 193.4 174.2 192 174.2C190.3 174.2 188.9 172.8 188.9 171.1M198 157.3C198.9 155.9 200.4 155 202.1 154.8C203.7 154.6 205.5 155.2 206.6 156.4M185 157.3C184.1 155.9 182.6 155 180.9 154.8C179.3 154.6 177.5 155.2 176.4 156.4M186.2 182.7C190.2 184.6 195 184.7 199.1 182.9" stroke="black" stroke-width="2" stroke-miterlimit="10" stroke-linecap="round" stroke-linejoin="round"/>
<path d="M167 155.2V135C167 129.5 170.2 124.8 174.8 122.6" stroke="black" stroke-width="2" stroke-miterlimit="10"/>
<path d="M177 127.8C173.8 122.9 173.9 118.7 175.6 114.8C184.4 117.7 192.4 121.3 203.3 121.2C212.3 121.1 218.3 127.9 217.4 136.3V155.1" stroke="black" stroke-width="2" stroke-miterlimit="10"/>
<path d="M158.5 309L156.3 258.6M228 258.6L225.9 309M124.7 270.9L132.6 252.3L146.3 220C148.2 215.5 152.2 212.4 157 211.6L163.2 210.6L170 209.6C171.2 209.5 172.4 209.2 173.5 208.7C174.7 208.3 175.7 207.7 176.7 207C180.7 204.3 183.3 199.8 183.5 194.8V193.6M259.6 270.9L251.7 252.3L238.1 220C236.2 215.5 232.2 212.4 227.4 211.6L221.2 210.6L214.4 209.6C213.2 209.5 212 209.2 210.9 208.7C209.7 208.3 208.7 207.7 207.7 207C203.7 204.3 201.1 199.8 200.9 194.8V193.6" stroke="black" stroke-width="2" stroke-miterlimit="10" stroke-linecap="round" stroke-linejoin="round"/>
<path d="M176.8 207.2C180.4 211.7 186.2 214.5 192 214.5C197.8 214.5 203.6 211.7 207.2 207.2M159.6 251.7L142.1 287.7M224.7 251.7L242.2 287.7M213.1 312.9C234.7 308.3 256.2 301 265.1 300.8C271.6 300.7 277.9 304.5 280.9 310.8C285.1 319.8 281 330.5 271.9 334.3L204 362.1C203.5 362.3 202.9 362.4 202.3 362.4C201 362.4 199.8 361.8 199 360.8L189.2 365.5L180.4 346.9L190.1 342.3C189.6 340.2 190.6 338 192.5 337C216.9 323.6 226.9 319.6 241.5 315.3M225.8 309C218.4 308.6 200.9 307.5 192.1 308C173.4 309 158.5 309 158.5 309M126 301.1C135 306 160.6 309.2 172.6 313.2" stroke="black" stroke-width="2" stroke-miterlimit="10" stroke-linecap="round" stroke-linejoin="round"/>
<path d="M214.3 357.9C214.3 357.9 215.2 359.5 217 360.6C218.2 361.3 220.5 361.6 221.9 362.5C223.8 363.6 225.2 365.6 225.6 367.8C226.1 370.6 224.5 373.6 225.6 376.3C226.7 378.8 228 381.3 229.2 383.7C230.6 386.7 232.1 389.7 233.5 392.7C234.3 394.6 233.4 396.8 231.4 397.5L217.3 399.7C215 400.1 212.9 398.4 212.7 396.1L212.4 393.2C212.2 388.9 211.2 384.6 209.4 380.6C206.6 374.2 203.6 368.3 197.1 365.1L195.9 364.5" stroke="black" stroke-width="2" stroke-miterlimit="10" stroke-linecap="round" stroke-linejoin="round"/>
<path d="M215.8 395.2C215.8 396.9 216.7 398.6 218.1 399.6M219 394.9C219.4 396.6 220.6 398.1 222.1 399M226.2 398.4C224.6 397.3 223.3 395.7 222.8 393.8M227 392.7C227.4 394.6 228.5 396.3 230 397.6M187.9 363.9L186.2 364.7C179.6 367.7 176.3 373.4 173.3 379.7C171.4 383.6 170.2 387.8 169.8 392.1L169.4 395C169.1 397.3 166.9 398.9 164.6 398.4L150.6 395.6C148.7 394.8 147.9 392.6 148.7 390.7C151.3 385.9 154.5 381.1 156.5 376.1C158.5 371.1 156.5 365.1 161.6 360.9C164.7 358.3 166.4 359.5 169 358.2C174.7 355.3 181 350.5 181.8 350" stroke="black" stroke-width="2" stroke-miterlimit="10" stroke-linecap="round" stroke-linejoin="round"/>
<path d="M166.3 393.9C166.2 395.6 165.3 397.3 163.8 398.2M163.1 393.4C162.6 395.1 161.4 396.6 159.8 397.3" stroke="black" stroke-width="2" stroke-miterlimit="10" stroke-linecap="round" stroke-linejoin="round"/>
<path d="M342.8 241.6C343.1 241.5 343.5 241.3 343.8 241.1C346.5 239.8 348.3 236.2 348.6 233.4C351 233.3 353.4 232.8 355.7 231.9C356.3 231.6 357 231.3 357.5 230.8C358 230.3 358.3 229.5 358.1 228.9C357.9 228.3 357.4 227.8 356.9 227.6C356.3 227.3 355.7 227.3 355.1 227.2C353.4 227 351.7 227 350 227.1C348.7 227.2 347.2 227 346 227.5C343.1 228.7 340.5 230.5 338 232.3C337.2 232.8 336.5 233.4 335.7 233.9C335.1 234.3 334.5 234.5 333.9 234.8C332.7 235.4 331.7 236.6 331.3 237.8C330.8 239.1 331 240.7 331.9 241.6C332.5 242.2 333.4 242.5 334.3 242.7C337.1 243.2 340.1 242.7 342.8 241.6Z" fill="#FFE3BE"/>
<path d="M341.5 239.4L343 238.5C344.1 237.7 345.5 236.1 345.7 234.7C345.7 234.4 346.2 231.5 346 231.5C348.4 231.6 350.9 231.4 353.2 230.7C353.8 230.5 354.5 230.3 354.9 229.8C355.4 229.2 355.5 227.7 354.6 227.5C355.5 227.4 356.5 227.5 357.2 228.1C357.9 228.7 358.4 229.8 358.1 230.7C357.9 231.4 357.2 231.9 356.6 232.2C355.9 232.5 355.2 232.6 354.4 232.7C352.5 233 350.6 233.2 348.7 233.5C348.9 235.3 348.3 237 347.2 238.4C346.1 239.8 345.2 241 344.5 242.6C344.3 243 344.1 243.5 343.7 243.8C343 244.2 342 244 341.4 243.8C340.8 243.6 340.3 243.2 340.1 242.6C339.7 241.7 340.2 240.7 340.9 240C340.9 239.8 341.2 239.6 341.5 239.4Z" fill="#FCCC9F"/>
<path d="M159.4 392.2C158.8 394 157.4 395.6 155.8 396.6M155.2 390.9C154.7 392.8 153.6 394.5 152 395.7M142.1 287.7L96.9001 302.4C95.9001 302.7 94.7001 302.2 94.3001 301.2L93.7001 299.8" stroke="black" stroke-width="2" stroke-miterlimit="10" stroke-linecap="round" stroke-linejoin="round"/>
<path d="M92.7 287C95.4 290.9 96.5 295.3 96.5 300.2M132.1 274.7L125.4 270.6L92.2 284.3C91.5 284.6 90.9 285.2 90.7 286L90.4 287.2M288.4 306.6C288.4 306.8 288.2 307.1 287.9 307.4C286.9 308.4 285.3 308.6 284 308L242.8 287.8" stroke="black" stroke-width="2" stroke-miterlimit="10" stroke-linecap="round" stroke-linejoin="round"/>
<path d="M291.2 293.9C288 296.4 284.8 301.4 285 305.6M251.8 275L259.6 271L292.6 291.7C293.2 292.1 293.6 292.7 293.6 293.4L293.7 294.5M70.7 301.4L69.6 294.3C69.5 293.4 69.4 292.5 69.5 291.7L69.9 287.5C70 286 71.3 285 72.8 285.1C74.2 285.2 75.2 286.4 75.2 287.8L75 290.7C74.9 291.9 75.1 293.1 75.6 294.2L77.1 298C80.8 294.6 85.9 293.9 90.2 295.5M64.7 305L62.8 304.4C61 304 59.3 303.1 58 301.8L51.5 295.6C50.4 294.5 50.3 292.7 51.3 291.5C51.9 290.9 52.7 290.5 53.5 290.5C54.2 290.5 54.9 290.7 55.5 291.3L61.3 296.5" stroke="black" stroke-width="2" stroke-miterlimit="10" stroke-linecap="round" stroke-linejoin="round"/>
<path d="M58.4 302.3L51.6 302.5C50.2 302.5 49 303.6 48.8 305.1C48.7 306.7 49.9 308 51.4 308.1L61.4 308.6C62.4 308.6 65.2 308.3 66.7 308M95.3 298.8L76.1 307C74.3 307.7 72.9 307.6 71.9 306.2C70.6 308.2 67 308.9 65.5 306C64.9 304.9 62 298 62 298C61.1 296.4 60.7 294.5 60.8 292.7L61.3 283.7C61.4 282.1 62.7 280.9 64.3 280.9C65.9 280.9 67.2 282.3 67.2 283.9L67 291.7C67 293.6 67.4 295.5 68.3 297.1L71.2 302.4M342.8 241.3C347.4 239.9 348.6 233.3 348.6 233.3L356 232.2C357.2 232 358.1 231 358 229.8C358 228.2 356.7 226.9 355.1 227L348.5 227.2C347 227.3 345.6 227.6 344.3 228.1L332.3 235.5L325.7 237.8C325 238 325.2 241.6 325.2 242.2C325.3 243.8 325.7 245.3 326.4 246.7C327 247.9 327.9 249.5 329.1 250.3C330.2 251.1 333.2 249.6 334.5 249.2C337.7 251.3 341.5 252.7 345.3 252.9" stroke="black" stroke-width="2" stroke-miterlimit="10" stroke-linecap="round" stroke-linejoin="round"/>
<path d="M92.4 288.3L84.9 284.1C83.6 283.4 82.2 282.9 80.8 282.7L74.3 281.8C72.7 281.6 71.3 282.7 71.1 284.3V284.8M82.3 295.2C80.4 293.6 80 288.9 80 288.9L75.1 287.8M132.3 252.2L98.3 268.3L54.2 254.3C53.2 254 52.4 253.1 52.3 252L52.2 251.2M252 252.2L286 268.3L330.9 253.4C331.9 253.1 332.7 252.1 332.7 251L332.8 250M59.3 238.8C59.4 243.6 58 247.8 54.9 251.1M100 245.8L60.4 236.3C59.5 236.1 58.5 236.5 58 237.3L57.3 238.4M324.8 237.7C324.2 242.3 326.2 248.4 329.9 251M284.3 245.8L324 235.5C325.1 235.2 326.2 235.5 327.1 236.1L328.1 236.9M20.9 241.3L14.3 242.6C12.7 242.9 11.2 241.9 10.9 240.3C10.7 239.5 10.9 238.6 11.4 237.9C11.7 237.4 12.2 237.1 12.7 236.9L17.2 235.9" stroke="black" stroke-width="2" stroke-miterlimit="10" stroke-linecap="round" stroke-linejoin="round"/>
<path d="M64.3 159.7C65.1 160 66 160.4 66.8 160.5C67.7 160.6 68.6 160.4 69.3 159.8C70 159.2 70.2 158.1 69.7 157.4C70.9 157.8 72.3 156.9 72.8 155.7C73.3 154.5 72.9001 153.2 72.1001 152.2C71.3001 151.2 70.2 150.6 69 150.2C70 150.6 71.3 149.7 71.8 148.8C73 146.2 70.5 144.6 68.5 143.7L63.1001 141.3C63.1001 140.8 63.5 140.3 63.8 139.9C64.2 139.2 63.8 138.7 63.4 138.2C62.9 137.4 62.3 136.7 61.8 135.9C64.4 134.3 66.7 131.9 68.4 129.4C69.2 128.3 69.9 127 71.2 126.4C78.2 126.9 85 127.9 91.7 130.2C93 130.6 94.4 131.2 95.3 132.2C96.9 134.1 96.4 137.3 94.4 138.7C92.8 139.8 90.8 139.8 88.9 139.6C85 139.3 81.1 138.5 77.3 137.3C77.6 138.5 78 139.7 78.3 140.9C77.4 141.3 76.6 141.6 75.7 142C77.2 148.7 75.9 156 72.4 161.9C72.5 163.6 71.9 163.8 70.3 164.2C69.3 164.4 68.2 164.2 67.2 163.8C66.2 163.4 65.4 162.8 64.5 162.2C63.9 161.5 63.9 160.5 64.3 159.7Z" fill="#262323"/>
<path d="M68.0001 130.1C66.7001 128.8 65.4001 127.4 63.8001 126.7C62.1001 126 60.0001 126.1 58.7001 127.4C57.9001 128.2 57.1001 129.2 57.0001 130.3C56.8001 131.4 57.1001 132.6 57.7001 133.5C58.4001 134.5 59.6001 135.2 60.7001 135.8C62.5001 135.8 64.3001 134.4 64.8001 132.7C66.0001 132.3 67.3001 131.2 68.0001 130.1Z" fill="#FFE3BE"/>
<path d="M62.1 133.8C62.1 133.3 61.9 132.8 61.7 132.3C61.2 131.4 60.6 130.6 60.2 129.6C59.7 128.3 60 126.4 61.7 126.3C62.2 126.3 62.8 126.5 63.3 126.7C65.1 127.5 66.8 128.7 68.1 130.2C67.1 131.2 66.1 132.2 65 133.1C64.6 133.4 61.8 134.9 61.8 135.1C62 134.8 62.1 134.3 62.1 133.8Z" fill="#FCCC9F"/>
<path opacity="0.1" d="M63.1001 137.4L67.7001 132.9L67.6001 131.2L62.2001 136L63.1001 137.4ZM70.5001 126.5L68.9001 128.6C68.9001 128.6 73.9001 128.1 82.1001 129.7C90.7001 131.3 96.2001 133.9 96.2001 133.9L95.5001 131.7C87.4001 128.1 79.1001 126.4 70.5001 126.5Z" fill="#FFF7E6"/>
<path d="M128.1 226.7C125.4 220.2 129.4 205.7 136.4 204L148.6 207.4C143.4 206.8 139.7 216.4 140.6 219.9L128.1 226.7ZM114.1 198.1C113.3 198.7 112.9 199.8 112.9 200.8C109.6 202.3 106.8 205.1 105.4 208.4C104 211.8 104 215.7 105.3 219.1C108.8 220.3 112 221.4 115.6 222.5C115.5 218.2 115.5 214 116.8 209.8C118.1 205.7 121.1 201.8 125.3 200.7L114.1 198.1Z" fill="#E70000"/>
<path opacity="0.4" d="M96.7001 216.6C118.4 220.9 142.3 211.8 133.3 208.7C120 204.1 117.3 200.9 113.8 202.1C112.7 200.2 111.4 198.2 110.4 196.3L160.5 210.7L154.4 212.1L126.8 227.3L96.7001 216.6Z" fill="#3F0202"/>
<path d="M96 173.2C94.2 170.7 77.1 178.3 79 181.9L82.9 189.9C87.5 184.9 93.3 181.5 100.6 180.2L96 173.2ZM105.6 189C103.8 186.5 86 195.2 89 201.9L93.7 210.7C95.7 202.6 103.4 198.1 110.7 196.8L105.6 189Z" fill="#E70000"/>
<path d="M88.5 166C85.1 167 80 169.6 77.2 171.8C76.6 170.8 76.1 169.6 75.7 168.5C74.8 168.3 73.8 168.2 72.9 168C70.7 167.3 68.5 166.8 66.4 166.2C64.8 165.7 63.1 165.3 61.5 164.8C60.1 162.8 58.6 160.8 58.1 158.4C57.6 156 58.3 153.2 60.4 151.9C59.1 151.4 58.2 150 58.3 148.6C58.4 147.2 59.6 145.9 61 145.8C59.9 144.7 59.7 142.8 60.5 141.5C61.3 140.2 62.9 139.8 64.1 140.7C66.4 142.5 69.1 143.9 71.8 146.5C72.7 147.3 72.6 147.5 72.2 148.7C71.8 149.8 70.6 150.6 69.5 150.5C70.4 151 71.4 151.5 72.1 152.3C72.8 153.1 73.3 154.2 73 155.2C72.8 155.9 72.4 156.4 71.8 156.8C71.2 157.2 70.6 157.4 69.9 157.5C70.3 158.3 70.1 159.3 69.4 159.9C68.7 160.5 67.8 160.7 66.9 160.6C66 160.5 65.1 160.3 64.2 160C64.2 161.1 64.7 162.2 65.5 163C66 163.4 66.5 163.8 67.1 164C67.5 164.1 68 164.2 68.5 164.2C69.8 164.3 71.4 164 72.6 163.4C73.9 157.8 75.1 152.1 76.4 146.5C75.8 145.4 75.6 144.1 75.3 142.8C76.4 142.5 77.6 142.3 78.7 141.9C78 140.5 77.6 138.9 77.1 137.4C79.4 138.2 81.6 138.7 84 138.9C85.1 141.3 87.2 143.5 87.2 146.1C87.1 151.8 84.3 158.3 87 163.3C87.4 164.1 87.9 165.1 88.5 166Z" fill="#FFE3BE"/>
<path d="M86.1001 144.2C86.1001 144.3 86.2001 144.4 86.2001 144.5C86.6001 145.5 86.7001 146.6 86.7001 147.7C86.7001 148.6 86.2001 149.7 86.3001 150.6C86.2001 149.6 86.1001 148.5 85.8001 147.5C85.5001 146.5 84.9001 145.6 84.0001 145C83.2001 144.5 82.2001 144.3 81.3001 144.7C81.0001 144.8 79.2001 146 79.3001 146.4C79.7001 148 79.4001 149.6 79.0001 151.1C78.6001 152.6 78.1001 154.2 78.0001 155.8C78.0001 157.4 78.5001 159.1 79.8001 160.1C78.2001 159.8 77.1001 158.5 76.5001 157C75.9001 155.5 75.9001 153.9 76.0001 152.3C76.0001 150.7 76.1001 149.1 75.8001 147.6C75.4001 145.9 75.7001 144 74.9001 142.4C76.0001 142.3 77.0001 141.8 77.8001 141.1C77.4001 139.7 77.2001 138.4 76.8001 137C78.9001 137.9 81.3001 138.4 83.6001 138.8C84.6001 140.4 85.5001 142.3 86.1001 144.2ZM62.9001 140.1C62.2001 140.2 61.8001 140.8 61.7001 141.5C61.7001 142.2 62.0001 142.8 62.5001 143.3C63.0001 143.8 63.5001 144.1 64.1001 144.4C65.8001 145.4 67.5001 146.4 69.2001 147.3C69.6001 147.6 70.1001 147.8 70.6001 147.8C71.1001 147.8 71.7001 147.5 71.8001 147C72.3001 147.7 71.7001 148.9 70.9001 149.2C70.1001 149.5 69.1001 149.4 68.3001 149.1C65.5001 148.4 62.8001 147.2 60.5001 145.6C59.6001 145 59.6001 143.4 59.8001 142.3C59.9001 141.6 60.3001 140.9 60.9001 140.5C61.4001 140.2 62.2001 140 62.9001 140.1ZM60.3001 146.6C59.6001 146.8 59.5001 147.8 59.8001 148.4C60.1001 149 60.8001 149.4 61.4001 149.8C63.1001 150.8 64.9001 151.8 66.6001 152.8C67.8001 153.5 71.8001 156 72.0001 153C72.9001 153.6 73.1001 155 72.4001 155.8C72.1001 156.2 71.6001 156.5 71.0001 156.6C70.5001 156.7 69.9001 156.8 69.4001 156.8C66.7001 155.2 64.0001 153.7 61.2001 152.1C60.4001 151.7 59.7001 151.2 59.1001 150.6C58.5001 150 58.1001 149.1 58.3001 148.2C58.5001 147.3 59.5001 146.5 60.3001 146.6Z" fill="#FCCC9F"/>
<path d="M65.7001 162.5C65.1001 162.2 64.4001 161.9 64.0001 161.3C63.6001 160.7 63.7001 159.7 64.3001 159.4C65.3001 158.9 66.1001 160 67.0001 160.3C67.8001 160.5 68.7001 160.4 69.3001 159.8C70.1001 159 70.1001 157.4 69.2001 156.6C69.5001 156.9 68.3001 157.9 68.1001 158C67.6001 158.3 66.9001 158.3 66.3001 158.2C65.4001 158 64.6001 157.5 63.8001 157C63.0001 156.5 62.2001 156 61.3001 155.9C57.6001 155.3 58.4001 160 59.8001 161.9C61.0001 163.4 62.6001 164.8 64.4001 165.7C65.3001 166.1 66.3001 166.5 67.2001 166.3C68.0001 166.1 69.2001 165.2 68.8001 164.3C68.4001 163.3 66.5001 162.8 65.7001 162.5Z" fill="#FCCC9F"/>
<path d="M76.1001 149.8C75.1001 153.9 76.4001 158.4 79.4001 161.3C77.9001 160.7 76.3001 161.8 75.7001 163.3C75.3001 164.5 75.7001 166 76.9001 166.7C77.6001 167.1 78.5001 167.2 79.4001 167C82.2001 166.4 84.3001 163.7 87.3001 163.9C87.6001 164.5 87.9001 165.2 88.2001 165.9C84.3001 167.2 80.6001 168.8 77.2001 171C76.8001 170.5 76.6001 169.9 76.2001 169.4C73.3001 168.9 70.6001 168 68.2001 166.3C68.4001 165.5 68.5001 164.8 68.7001 164.1C68.7001 164.1 70.1001 164.2 70.3001 164.2C71.0001 164.1 71.5001 163.9 72.0001 163.4C72.5001 162.7 72.8001 161.9 73.0001 161.1C74.0001 157.3 75.1001 153.6 76.1001 149.8Z" fill="#FCCC9F"/>
<path d="M96.6 216.3L75.2 174.5C74.9 173.9 75.8 172.9 77.2 171.8C80 169.7 85.1 167 88.5 166C90.2 165.5 91.4 165.4 91.7 166L113.7 201.7M77.2 171.7L76.1 169.1L64.5 165.5C62.5 164.9 60.7 163.5 59.7 161.7C58.6 159.7 57.3 157 57.5 155.3C57.8 152.6 60.7 152.1 60.7 152.1C60.7 152.1 58.3 150.7 58.2 149.2C58.1 148 58.7 146.6 59.8 145.9C60 145.8 60.3 145.7 60.6 145.6C60 145.7 59 143.4 60.2 141.6C61.5 139.6 63.5 139.7 65.4 141C67 142 71.6 144.9 71.6 144.9C71.8 145 72 145.2 72.1 145.4C72.8 146.3 73.1 148 72.5 149.1C71.8 150.4 70.1 150.7 69 150.4" stroke="black" stroke-width="2" stroke-miterlimit="10" stroke-linecap="round" stroke-linejoin="round"/>
<path d="M60.7001 152.1L64.8001 154.2L68.9001 156.6C70.2001 157.4 71.8001 156.9 72.6001 155.7C73.3001 154.5 72.9001 152.9 71.7001 152.1L60.6001 145.6" stroke="black" stroke-width="2" stroke-miterlimit="10" stroke-linecap="round" stroke-linejoin="round"/>
<path d="M69.2 156.8C70 157.2 70.3 158.2 69.9 159L69.7 159.3C69.2 160.5 67.8001 160.9 66.6001 160.4L61.9 158.1L60.8 158.4" stroke="black" stroke-width="2" stroke-miterlimit="10" stroke-linecap="round" stroke-linejoin="round"/>
<path d="M63.6001 139.8L63.3001 138.7L63.1001 138L61.7001 136L62.6001 135.2L66.0001 132.1L66.8001 131.3C66.8001 131.3 69.6001 127.2 70.4001 126.4C71.2001 125.6 90.3001 128.1 95.3001 131.5C96.5001 132.3 95.3001 138.9 93.5001 139.7C92.6001 140.1 88.7001 139.5 84.7001 138.8C84.0001 138.7 83.3001 138.5 82.7001 138.4C81.1001 138.1 79.5001 137.7 78.1001 137.4C77.3001 137.2 76.6001 137.1 76.0001 136.9C74.7001 136.6 73.8001 136.4 73.6001 136.4L75.4001 142.7L76.0001 144.7C76.3001 145.7 76.4001 146.8 76.2001 147.8C76.2001 147.9 76.1001 148.1 76.1001 148.2L72.8001 161.8C72.4001 163.4 70.7001 164.4 69.2001 163.9C69.1001 163.9 69.0001 163.8 68.9001 163.8L65.0001 162.3C64.9001 162.3 64.8001 162.2 64.7001 162.2C63.9001 161.7 63.5001 160.7 63.8001 159.8C63.9001 159.5 63.9001 159.4 64.0001 159.3" stroke="black" stroke-width="2" stroke-miterlimit="10" stroke-linecap="round" stroke-linejoin="round"/>
<path d="M76.8 137.5L78.3 141.2L76.1 142M83.5 138.8L86.7 145.8L86.5 162.7L88.3 166M79.2 160.3C76.9 158.5 75.4 152.4 75.8 149.8M66.8 163.1C64 166.5 60.2 169.9 55.9 172.3C53.1 173.9 45.6 177.3 48.4 181.8C53.1 189.5 66.2 171 68.3 163.8M63.6 139.8L67.7 134.9L68.9 128.5M67.2 129.5L63.7 126.6C62.4 125.7 60.6 125.9 59.5 127.1L57.6 129.1C56.4 130.3 56.4 132.2 57.5 133.5L58.4 134.5C59.5 135.8 61.6 136 62.9 134.9C64.2 133.8 64.4 131.9 63.4 130.5L62.9 129.9M26.5 248.1L25.3 248.6C24.6 248.9 24.1 249.5 23.8 250.1C23.5 250.9 23.5 251.7 23.9 252.5C24.6 253.9 27.2 256.8 30.3 255.3L32.3 254.2C33.2 253.7 33.7 252.8 33.7 251.9C33.7 251.4 33.6 250.9 33.3 250.4C32.5 249.3 31 249 29.9 249.6L28.5 250.5L27.4 251.2" stroke="black" stroke-width="2" stroke-miterlimit="10" stroke-linecap="round" stroke-linejoin="round"/>
<path d="M21.0001 245.1L22.2001 244.4C23.4001 243.7 24.9001 244.1 25.6001 245.2C26.5001 246.5 26.1001 248.2 24.7001 248.9L22.7001 250C20.0001 251.2 17.7001 248.4 17.0001 247C16.6001 246.2 16.6001 245.3 17.0001 244.6C17.3001 243.9 18.1001 243.2 18.8001 242.9L20.9001 241.8M355.7 235.3C354.3 237.3 349.6 238.7 349.6 238.7C348.2 239.2 347.4 240.8 348 242.2C348.5 243.5 349.9 244.2 351.3 243.8C358.6 242.3 360.9 239.3 360.7 235.3C360.6 233.5 357.7 231.9 357.7 231.9" stroke="black" stroke-width="2" stroke-miterlimit="10" stroke-linecap="round" stroke-linejoin="round"/>
<path d="M318.6 120C319.8 120.2 320.9 119.2 321.2 118C321.5 116.8 321 115.6 320.2 114.7C319.4 113.8 318.4 113.1 317.3 112.5C313.3 110.2 309.7 109.1 305.3 107.8C300.2 106.3 294.8 105.9 289.6 106.5C288.4 106.7 287.1 106.9 286 107.5C284.9 108.1 284 109.2 284 110.5C283.9 111.7 284.8 113 286.1 113.1C286.5 111.2 288.1 110 290 109.5C292.8 108.8 296.3 109.3 299.2 109.7C302.4 110.1 305.5 110.8 308.5 111.9C312 113.1 318.8 115.4 318.6 120Z" fill="#FFF7E6"/>
<path d="M318 117.5L313.6 113.8L296.5 109L286.5 110.8L279.8 153.7L281.3 157.3L283.1 154.5L292.4 154.9L304 159.3L305.1 158.7L306.9 152.9C305.3 151.9 303.6 151.1 301.8 150.4C300.3 149.9 298.4 149.8 297.1 148.9C296.3 148.3 295.7 147.3 295.9 146.4C296.2 145.1 297.8 144.7 299 144.5C302.4 144 306 144.4 309.3 145.4C307.8 143.5 305.5 142.3 303.1 141.8C300.9 141.4 298.9 141.8 296.8 141.5C295.6 141.4 294.4 140.9 293.6 139.9C292.8 139 292.5 137.6 293 136.5C293.4 135.7 294.1 135.2 295 134.9C295.8 134.6 296.7 134.5 297.6 134.5C300.7 134.4 303.5 135 306.5 135.8C305.3 134 303.8 134.1 302 133.1C300.9 132.5 299.9 131.5 299.5 130.2C299.1 129 299.5 127.4 300.5 126.7C301.3 126.1 302.4 126.1 303.4 126.4C304.4 126.7 305.2 127.2 306.1 127.7C308.5 129.2 311 130.7 313.4 132.3C314.1 131.1 314.3 130.8 313.7 129.7C313.2 128.6 312.6 127.6 312.3 126.4C312 125.4 311.9 124.3 312.1 123.3C312.6 121.1 315.2 120 316.5 122.3C317 120.8 317.5 119.2 318 117.5Z" fill="#FF7830"/>
<path d="M317.4 122.1C315.9 121.3 313.4 121.5 311.8 121.8C312.5 118.9 310.8 116.3 308.3 114.9C302.6 111.7 287.4 111.9 287.2 113.3C287.2 113.3 285.4 111.5 287.5 110.5C289.5 109.4 293 108.7 303.3 110.5C307.8 111.3 311.1 112.7 313.4 114C316.2 115.6 317.4 117.2 317.6 117.3C318.2 118.8 318.1 120.6 317.4 122.1Z" fill="#ED662B"/>
<path d="M317.5 117.3C317.4 117.1 316.1 115.6 313.3 114V113.9C315 114.3 316.9 115.8 317.5 117.3ZM305.6 158.7C305.6 158.7 302 155.5 295.5 153.9C289 152.2 283.7 152.4 283.7 152.4L290.1 109.7L286.6 111L279.7 154.9L281.9 157.6L283.2 154.8L293.7 155.4L304 160.1L305.6 158.7Z" fill="#ED662B"/>
<path d="M301.3 157.6L301.4 156.7C301.6 154.5 300.6 152.3 298.7 151L295.4 148.7L295.8 145.1L292.4 139.8L293.3 135.3L301.3 135.7L299.9 133.3C298.9 131.6 299.2 129.4 300.5 128L301.8 126.6L309.9 131L311.2 122.5L314.2 133.5L317 136L304.6 160.4L301.3 157.6Z" fill="#ED662B"/>
<path d="M282.4 154.6C282.1 156 281.9 157.4 281.6 158.8C287.3 163.4 295.1 165.1 302.1 163.1C302.5 161.7 302.7 160.3 303.1 159C301 157.1 298.4 156 295.6 155.4C292.8 154.8 290 154.7 287.1 154.6C285.6 154.6 284 154.7 282.4 154.6Z" fill="#FFF7E6"/>
<path d="M282.7 156.4C287.1 155.5 293.9 156.8 299.5 159.3C299.4 160 299.4 160.2 299 160.8C300.2 161.1 301.2 161.6 302.2 162.3C302.3 161.4 302.6 160.6 303 159.8C297.3 155.4 289.6 153.6 282.5 155C282.6 155.5 282.7 155.9 282.7 156.4Z" fill="#DDD8D0"/>
<path d="M284.8 158.4C289.1 161.3 294.5 162.6 299.7 161.8C295.2 159.5 289.9 158.3 284.8 158.4Z" fill="#DDD8D0"/>
<path d="M256.2 226.1C258.9 219.6 254.9 205.1 247.9 203.4L235.7 206.8C240.9 206.2 244.6 215.8 243.7 219.3L256.2 226.1Z" fill="#E70000"/>
<path opacity="0.4" d="M286.4 216.5C264.7 220.8 240.8 211.2 249.8 208.1C263.1 203.5 267.7 200.6 271.3 201.8C272.4 199.9 273.7 197.9 274.7 196L222.6 210.1L228.7 211.5L258 227.3L286.4 216.5Z" fill="#3F0202"/>
<path d="M269.6 198.2C270.4 198.8 270.8 199.9 270.8 200.9C274.1 202.4 276.9 205.2 278.3 208.5C279.7 211.9 279.7 215.8 278.4 219.2C274.9 220.4 271.7 221.5 268.1 222.6C268.2 218.3 268.2 214.1 266.9 209.9C265.6 205.8 262.6 201.9 258.4 200.8L269.6 198.2ZM289 172.2C290.8 169.7 307.9 177.3 306 180.9L302.1 188.9C297.5 183.9 291.7 180.5 284.4 179.2L289 172.2ZM279.6 187.8C281.4 185.3 299.2 194 296.2 200.7L291.5 209.5C289.5 201.4 281.8 196.9 274.5 195.6L279.6 187.8Z" fill="#E70000"/>
<path d="M306.8 169.3C303.1 167.8 298.5 165.5 295 165.5C294.8 165 294.6 164.5 294.5 164C295.5 163.7 296.5 163.9 297.5 164C298.5 164.1 299.5 164.2 300.4 163.8C301.3 163.5 302.1 162.6 302 161.6C302.8 161.7 303.7 161.2 304.3 160.5C304.8 159.8 305.1 159 305.3 158.2C305.9 156.2 306.5 154.2 307.1 152.1C305.6 150.8 303.9 150 301.9 149.8C300.6 149.7 299.2 149.9 297.9 149.6C296.6 149.3 295.3 148.2 295.4 146.9C295.5 146 296.2 145.2 297 144.8C297.8 144.4 298.8 144.4 299.8 144.3C303 144.3 306.3 144.8 309.4 145.8C307.5 143.4 304.6 141.8 301.6 141.6C300.2 141.5 298.9 141.6 297.5 141.6C296.1 141.5 294.7 141.1 293.7 140.2C292.7 139.2 292.3 137.6 293.1 136.5C293.9 135.3 295.5 135.2 296.9 135.2C300 135.2 303.1 135.5 306.2 136.2C304.5 134.9 302.7 133.3 301.1 132C300 131.1 298.8 130 299 128.6C299.2 127.3 300.6 126.6 301.9 126.7C303.2 126.8 304.3 127.4 305.4 128.1C308 129.6 310.5 131.1 313.1 132.6C313.5 132.1 314 131.5 314.4 130.9C313.2 129.4 312.3 127.7 311.7 125.9C311.4 125.1 311.2 124.2 311.4 123.4C311.6 122.6 312.1 121.9 312.9 121.5C313.6 121.1 314.6 121.1 315.3 121.5C316.6 122.1 317.2 123.6 317.6 125C318.5 127.6 319.4 130.1 320.2 132.7C319 136 318 139.3 316.8 142.5C317.7 142.6 318.5 143.5 318.7 144.4C318.9 145.3 318.7 146.3 318.2 147C317.7 147.8 317 148.4 316.3 149C317.1 148.9 317.8 149.9 317.8 150.7C317.8 151.5 317.4 152.2 317 152.8C313.3 158.7 310.5 163.4 306.8 169.3Z" fill="#FFE3BE"/>
<path d="M319.1 134.8C319 134.4 318.8 134 318.6 133.6C318.3 133.2 316.8 131.9 316.5 132C316.7 131 316.7 130.2 316.4 129.3C316.1 128.3 315.7 127.4 315.2 126.5C314.9 125.8 314.5 125.2 314.4 124.5C314.3 123.9 314.6 123.1 315.2 122.8C315.6 122.6 316.4 122.8 316.5 123.3C316.4 122.4 316 121.5 315.1 121.2C314.2 121 313.2 121.4 312.7 122.1C312 123 312.2 124.3 312.4 125.4C312.8 127.2 313.5 129 314.5 130.5C314.1 131.2 313.7 132 313.4 132.7C315.7 133.5 317.7 135.4 318.4 137.8C318.5 137.1 318.7 136.6 319 136C319.1 135.7 319.2 135.2 319.1 134.8ZM316.6 141.8C316.9 140.6 316.5 139.4 315.7 138.5C314.9 137.6 313.3 136.9 312.2 136.3C309.1 134.5 306.4 132.6 303.3 130.7C302.8 130.4 302.4 129.7 302.5 129C302.5 128.4 303 127.7 303.5 127.5C302.9 126.8 301.6 126.5 300.8 126.8C299.9 127.1 299.3 128 299.3 129C299.3 130.3 300.4 131.4 301.4 132.3C305.9 136.1 311.1 139.4 316.6 141.8ZM314.4 148.2C315.1 147.6 315 146.9 314.3 146.2C310.9 142.7 308 140.1 305 139.6C303.4 139.3 300.7 139.2 299 139.1C297.9 139 295.9 139.1 295.1 138.1C294.6 137.4 295 136.2 295.7 135.7C294.9 135 293.5 135.8 293 136.6C292.4 137.4 292.5 138.5 293 139.4C293.5 140.3 294.3 140.8 295.2 141.2C296.1 141.6 297.1 141.7 298 141.8C299.7 142 301.5 142.3 303.3 142.5C304.7 142.6 306.8 142.4 307.9 143.2C308.3 143.5 308.7 144 309 144.4C309.9 145.5 310.8 146.6 311.6 147.7C312.2 148.4 312.9 148.9 313.8 148.4C314.1 148.4 314.3 148.3 314.4 148.2ZM305.2 168.2C305.6 167.4 306.1 166.6 306.2 165.7C306.3 164.9 306.2 162.9 305.3 162.6C306.9 162.4 307 161 307.5 159.7C308.1 158.1 308.8 156.6 309.4 155C309.7 154.2 310.4 152.9 310.2 152.1C310.1 151.5 309.3 151 308.8 150.6C306.2 148.9 303.2 147.8 300.2 147.4C299.5 147.3 298.7 147.2 298.2 146.7C297.3 145.9 298.3 144.8 298.8 144.1C297.8 143.8 296.6 144.5 296 145.3C295.4 146.2 295.3 147.5 295.9 148.4C296.7 149.9 298.4 150 299.9 150C302.2 150 304.5 150.8 306.4 152C306.4 153.8 306.5 155.4 305.9 157.1C305.5 158.1 305.2 159.2 304.8 160.2L302.7 161.5L302.1 163.7L297.8 165.4L305.2 168.2Z" fill="#FCCC9F"/>
<path d="M271.3 201.1L293.3 165.4C294.4 163.5 310.7 169.2 309.1 172.5L288.4 215.8M307.2 153.2L307.7 152.7L307.4 152.5L304.2 150.7C303.2 150.1 302 149.8 300.8 149.7L297.9 149.5C296.5 149.4 295.5 148.2 295.5 146.9V146.8C295.6 145.3 296.8 144.2 298.3 144.3L302.5 144.5C303.4 144.6 304.3 144.7 305.1 144.9L309.5 146.2L312 146.9M308.4 137L300.3 131.8C299.7 131.4 299.2 130.8 299 130.1C298.8 129.3 298.9 128.5 299.3 127.7C300.1 126.4 301.9 125.9 303.3 126.7L315.3 133.8C318.9 136.3 317.3 138.9 317.1 142.3" stroke="black" stroke-width="2" stroke-miterlimit="10" stroke-linecap="round" stroke-linejoin="round"/>
<path d="M314.2 131.1V131L311.7 124.6C311.3 123.2 312.1 121.7 313.4 121.2C314.7 120.7 316.1 121.3 316.8 122.4L317.1 123L320.2 132.5C320.4 133.1 318.3 139 317.2 142.1M312.8 147.6L311.9 146.9L308 144C306.5 142.9 304.7 142.1 302.8 141.9L295.1 141C293.5 140.8 292.3 139.3 292.5 137.7C292.7 136.2 294 135.1 295.4 135.1H295.6L304.5 135.9C306.4 136.1 308.1 136.7 309.6 137.8C309.6 137.8 316.7 142.1 317 142.3C319.7 144.2 318.5 147.7 316.4 148.7C317.7 149.8 317.6 151.3 316.6 152.9L311.1 162L306.7 169.2M314 131L313.5 132.8" stroke="black" stroke-width="2" stroke-miterlimit="10" stroke-linecap="round" stroke-linejoin="round"/>
<path d="M307.1 152.6L305.1 159.4C304.9 160 304.6 160.4 304 160.7L303.1 161.2M282.1 154.8C289.4 153.8 296.5 155.4 303.4 159.5" stroke="black" stroke-width="2" stroke-miterlimit="10" stroke-linecap="round" stroke-linejoin="round"/>
<path d="M316.7 122.4L317.9 118.6C319.8 112.7 287.3 105.2 286.5 111.5L279.8 153.7C279.6 155.3 280.4 156.8 281.9 157.4M309.7 145.3L309.4 146.2" stroke="black" stroke-width="2" stroke-miterlimit="10" stroke-linecap="round" stroke-linejoin="round"/>
<path d="M303.2 159.3L302.4 162.7C296 159.4 289 158 281.7 158.1L281.9 157.4L282.5 154.8" stroke="black" stroke-width="2" stroke-miterlimit="10" stroke-linecap="round" stroke-linejoin="round"/>
<path d="M281.7 158.1C280.4 161.9 301.4 166.9 302.4 162.7M317.5 119.9L317.9 120C319.4 120.3 320.6 119.2 320.9 117.7C322.5 109.6 286 100.5 284 110.2C283.7 111.7 284.6 113.2 286.1 113.6M304.3 103C305.9 104.1 307.8 104.8 309.7 104.9C311.6 104.9 313.6 104.2 314.8 102.6C315.9 101.1 316.1 98.7 314.8 97.2C315.8 97.1 316.7 96.7 317.1 95.7C317.5 94.7 317.3 93.5 316.6 92.8C317.2 90 316 86.7 313.6 85.1C311.2 83.5 307.7 83.7 305.6 85.7C303.5 87.7 303.2 91.3 304.9 93.5C305.6 94.3 306.5 95 307.5 95.2C308.5 95.4 309.7 95.1 310.4 94.2M317.6 109.4C319.5 110.7 321.9 111.4 324.1 110.8C326.3 110.2 328.3 108.3 328.4 106C328.5 104.7 328 103.3 326.9 102.6C325.8 101.9 324.2 102 323.4 103.1C322.6 104.2 323.1 105.9 324.3 106.3M322.6 94.5C321.2 93.9 320.4 92 321.1 90.6C321.8 89.2 323.7 88.6 325 89.3C326.4 90 326.9 92 326.1 93.3C327 93.3 328 94 328.2 94.9C328.4 95.8 328 96.9 327.1 97.3C326.3 97.7 325.1 97.5 324.5 96.8" stroke="black" stroke-width="2" stroke-miterlimit="10" stroke-linecap="round" stroke-linejoin="round"/>
<path d="M304.8 99.6999C304.7 100.5 304.2 101.2 303.5 101.6C302.9 102.1 302.1 102.3 301.3 102.5C299.7 103 298 103.3 296.4 103C294.8 102.7 293.2 101.8 292.3 100.4C291.6 99.1999 291.6 97.6999 292.2 96.3999C292.8 95.1999 294 94.1999 295.3 93.9999C296.9 93.6999 298.6 94.3999 299.3 95.7999C300 97.1999 299.3 99.1999 297.8 99.6999M35.3 224.2L35.5 223.8C36.2 222.3 37.9 221.7 39.3 222.5L45.2 225.5C47.1 226.5 48.6001 228.2 49.6001 230.1L53.4 237.9L58.2 238.6M49.9 243.4C42.6 240.9 43.7 231.4 43.7 231.4L38.6001 228.6M126.7 227.1L96.5 216.1M257.6 227.1L287.8 216.1M110.7 196.6L163.2 210.7M273.6 196.6L221.1 210.7M313.1 309L314.2 301.9C314.3 301 314.4 300.1 314.3 299.3L313.9 295.1C313.8 293.6 312.5 292.6 311 292.7C309.6 292.8 308.6 294 308.6 295.4L308.8 298.3C308.9 299.5 308.7 300.7 308.2 301.8L306.7 305.6C303 302.2 297.9 301.5 293.6 303.1M322.4 304L328.2 298.8C328.8 298.3 329.5 298 330.2 298C331 298 331.8 298.3 332.4 299C333.5 300.2 333.4 302 332.3 303.1L325.8 309.3C324.5 310.6 319.2 312.4 319.2 312.4" stroke="black" stroke-width="2" stroke-miterlimit="10" stroke-linecap="round" stroke-linejoin="round"/>
<path d="M317 315.4C318.4 315.7 321.3 316.1 322.3 316L332.3 315.5C333.9 315.4 335.1 314.1 334.9 312.5C334.8 311.1 333.6 310 332.1 310L325.3 309.8" stroke="black" stroke-width="2" stroke-miterlimit="10" stroke-linecap="round" stroke-linejoin="round"/>
<path d="M286 305.3L307.7 314.6C309.5 315.3 310.9 315.2 311.9 313.8C313.2 315.8 316.8 316.5 318.3 313.6C318.9 312.5 321.8 305.6 321.8 305.6C322.7 304 323.1 302.1 323 300.3L322.5 291.3C322.4 289.7 321.1 288.5 319.5 288.5C317.9 288.5 316.6 289.9 316.6 291.5L316.8 299.3C316.8 301.2 316.4 303.1 315.5 304.7L312.6 310" stroke="black" stroke-width="2" stroke-miterlimit="10" stroke-linecap="round" stroke-linejoin="round"/>
<path d="M312.8 292.4V291.9C312.6 290.3 311.2 289.2 309.6 289.4L303.1 290.3C301.7 290.5 300.3 291 299 291.7L292.1 295.5L290.7 294.5M308.6 295.4L303.7 296.5C303.7 296.5 303.3 301.3 301.4 302.8M345.3 253.3C342.7 253.2 336.9 251.1 334.8 249.5L330.4 250.5M41.5 251.8L55.2 250.5M29 246.9L30.9 249.5M31.4 223.8L29.2 220.7C28.6 219.8 27.4 219.7 26.5 220.3L25.3 221.2L25.5 222.1C25.7 223 25.3 224 24.5 224.5L21.5 226.6C20.8 227.1 19.9001 227.2 19.1001 226.8L18.1001 226.4L16.9 227.3C16.1 227.9 15.9 229.1 16.5 229.9L24.5 240.7M33.9 252.9L43.9 245.9C45.1 245 45.4 243.4 44.5 242.2L34.7 228.4M19.6001 224L22.6001 221.9M20.8 207.4H22.4C24 207.4 25.3 206.1 25.3 204.5V194.3C25.3 192.7 24 191.4 22.4 191.4H4.20004C2.60004 191.4 1.30005 192.7 1.30005 194.3V204.5C1.30005 206.1 2.60004 207.4 4.20004 207.4H15L18 213.7L20.8 207.4Z" stroke="black" stroke-width="2" stroke-miterlimit="10" stroke-linecap="round" stroke-linejoin="round"/>
<path d="M9.30008 198.5C9.90759 198.5 10.4001 198.008 10.4001 197.4C10.4001 196.793 9.90759 196.3 9.30008 196.3C8.69257 196.3 8.20007 196.793 8.20007 197.4C8.20007 198.008 8.69257 198.5 9.30008 198.5Z" fill="black"/>
<path d="M9.30008 203.3C9.90759 203.3 10.4001 202.807 10.4001 202.2C10.4001 201.592 9.90759 201.1 9.30008 201.1C8.69257 201.1 8.20007 201.592 8.20007 202.2C8.20007 202.807 8.69257 203.3 9.30008 203.3Z" fill="black"/>
<path d="M12.1001 199.6H14.9001" stroke="black" stroke-width="2" stroke-miterlimit="10" stroke-linecap="round" stroke-linejoin="round"/>
<path d="M17.3 203.3C19.3 200.7 19.4 198.3 17.3 196.2Z" fill="white"/>
<path d="M17.3 203.3C19.3 200.7 19.4 198.3 17.3 196.2" stroke="black" stroke-width="2" stroke-miterlimit="10" stroke-linecap="round" stroke-linejoin="round"/>
<path d="M192.1 348.1L182.8 351.9M195.7 355.3L186.1 359.2M193.7 351.7L184.5 355.5M187.8 362.4L197.4 358.4M190 342C191 345.4 193 351.2 195.7 355M191.6 364.3L195.1 366.2L197.7 361.4M167 358.8L109.5 331.8C100.5 327.5 96.9001 316.7 101.6 307.9C104.7 302 110.8 298.6 117 298.6C120 298.6 123 299.4 125.8 301L132.5 303.6" stroke="black" stroke-width="2" stroke-miterlimit="10" stroke-linecap="round" stroke-linejoin="round"/>
<path d="M134.7 309.9C148.7 314.2 169.3 327.3 189.3 337.9M148.7 311.5C150.9 313.3 151.5 314.7 152.4 317.3M229.8 315.6C228.1 317.5 227.1 318.7 225.4 320.7" stroke="black" stroke-width="2" stroke-miterlimit="10" stroke-linecap="round" stroke-linejoin="round"/>
<g opacity="0.2">
<path d="M311.1 350.6V365.3" stroke="black" stroke-width="2" stroke-miterlimit="10" stroke-linecap="round" stroke-linejoin="round"/>
<path d="M302.6 365.6C304.754 365.6 306.5 362.242 306.5 358.1C306.5 353.958 304.754 350.6 302.6 350.6C300.446 350.6 298.7 353.958 298.7 358.1C298.7 362.242 300.446 365.6 302.6 365.6Z" stroke="black" stroke-width="2" stroke-miterlimit="10" stroke-linecap="round" stroke-linejoin="round"/>
<path d="M352.8 350.6V365.3M357.4 350.6V365.3M362 350.6V365.3" stroke="black" stroke-width="2" stroke-miterlimit="10" stroke-linecap="round" stroke-linejoin="round"/>
<path d="M319.6 365.6C321.754 365.6 323.5 362.242 323.5 358.1C323.5 353.958 321.754 350.6 319.6 350.6C317.446 350.6 315.7 353.958 315.7 358.1C315.7 362.242 317.446 365.6 319.6 365.6Z" stroke="black" stroke-width="2" stroke-miterlimit="10" stroke-linecap="round" stroke-linejoin="round"/>
<path d="M331.9 365.6C334.054 365.6 335.8 362.242 335.8 358.1C335.8 353.958 334.054 350.6 331.9 350.6C329.746 350.6 328 353.958 328 358.1C328 362.242 329.746 365.6 331.9 365.6Z" stroke="black" stroke-width="2" stroke-miterlimit="10" stroke-linecap="round" stroke-linejoin="round"/>
<path d="M344.3 365.6C346.454 365.6 348.2 362.242 348.2 358.1C348.2 353.958 346.454 350.6 344.3 350.6C342.146 350.6 340.4 353.958 340.4 358.1C340.4 362.242 342.146 365.6 344.3 365.6Z" stroke="black" stroke-width="2" stroke-miterlimit="10" stroke-linecap="round" stroke-linejoin="round"/>
</g>
<g opacity="0.2">
<path d="M61.6001 390.7H57.8M61.6001 390.7C62.6001 390.7 63.4 389.9 63.4 388.8C63.4 387.8 62.6001 387 61.6001 387H57.8V390.7M61.6001 390.7C62.6001 390.7 63.4 391.5 63.4 392.5C63.4 393.6 62.6001 394.4 61.6001 394.4H57.8V390.7" stroke="black" stroke-width="2" stroke-miterlimit="10" stroke-linecap="round" stroke-linejoin="round"/>
<path d="M60.8 363.4C65.6048 363.4 69.5 359.505 69.5 354.7C69.5 349.895 65.6048 346 60.8 346C55.9951 346 52.1 349.895 52.1 354.7C52.1 359.505 55.9951 363.4 60.8 363.4Z" stroke="black" stroke-width="2" stroke-miterlimit="10" stroke-linecap="round" stroke-linejoin="round"/>
<path d="M60.8 399.4C65.6048 399.4 69.5 395.505 69.5 390.7C69.5 385.895 65.6048 382 60.8 382C55.9951 382 52.1 385.895 52.1 390.7C52.1 395.505 55.9951 399.4 60.8 399.4Z" stroke="black" stroke-width="2" stroke-miterlimit="10" stroke-linecap="round" stroke-linejoin="round"/>
<path d="M42.7 381.4C47.5049 381.4 51.4 377.505 51.4 372.7C51.4 367.895 47.5049 364 42.7 364C37.8951 364 34 367.895 34 372.7C34 377.505 37.8951 381.4 42.7 381.4Z" stroke="black" stroke-width="2" stroke-miterlimit="10" stroke-linecap="round" stroke-linejoin="round"/>
<path d="M78.8 381.4C83.6048 381.4 87.5 377.505 87.5 372.7C87.5 367.895 83.6048 364 78.8 364C73.9951 364 70.1 367.895 70.1 372.7C70.1 377.505 73.9951 381.4 78.8 381.4Z" stroke="black" stroke-width="2" stroke-miterlimit="10" stroke-linecap="round" stroke-linejoin="round"/>
<path d="M57.9 351L63.4 358.3M63.4 351L57.9 358.3M39.8 369L42.6001 372.7L45.4 369M81.8 376.4L79 368.1L76.2 376.4M76.8 374.7H81.3M42.6001 372.2V376.4" stroke="black" stroke-width="2" stroke-miterlimit="10" stroke-linecap="round" stroke-linejoin="round"/>
</g>
<path opacity="0.1" d="M192.2 444.5C238.868 444.5 276.7 440.739 276.7 436.1C276.7 431.461 238.868 427.7 192.2 427.7C145.532 427.7 107.7 431.461 107.7 436.1C107.7 440.739 145.532 444.5 192.2 444.5Z" fill="black"/>
<path d="M210.8 208.8C208.7 212.8 204 216.5 198.2 218C196.3 218.5 194.3 218.8 192.2 218.7C189.9 218.7 187.6 218.4 185.6 217.8C180.1 216.2 175.6 212.6 173.6 208.8" stroke="black" stroke-width="2" stroke-miterlimit="10" stroke-linecap="round" stroke-linejoin="round"/>
<path d="M210.1 103C212.2 104 214.3 104.5 215 103.5C213.7 105.6 214.4 108.7 216.5 110.1C218.6 111.5 221.6 110.9 223.1 109C223.6 112.1 225.6 114.9 228.3 116.4C234.4 119.8 239.7 116.3 242.5 110.8C242 111.8 242.9 113.1 244.1 113.2C245.3 113.3 246.3 112.4 246.6 111.3C246.9 110.2 246.8 109 246.5 108C250.9 112.3 257.6 115.9 263.6 112.5C266.6 110.8 267.7 107.7 267.1 104.3C266.8 102.7 264.3 96.9 261.9 97.5C264.3 96.9 266.2 94.8 266.7 92.4C267.2 90 266.1 87.3 264.1 85.9C267.8 80.6 263.3 75.3 263.7 69.8C263.9 66.6 263.9 63.5 263.6 60.3C263.3 57.4 263 52.3 258.9 53.1C257.3 53.4 256.3 54.5 255 55.3C253.6 56.1 252.1 56.8 250.6 57.5C249 58.2 247.5 57.6 245.8 57.3C243.8 57 241.8 56.7 239.9 56.4C237.3 56 234.9 53.5 233.6 51.4C232.9 50.4 232.4 49.3 231.6 48.3C230.8 47.3 229.8 46.5 228.5 46.4C227.2 46.3 226 47 225.2 47.9C220.5 53.2 222.4 61.4 218.3 66.8C216.7 69 214.1 70.3 212.3 72.3C210.5 74.3 209.6 77.8 211.7 79.5C209.8 79.8 208.1 81.4 207.8 83.3C207.5 85.2 208.4 87.3 210.1 88.2C209.2 87.7 205.7 93.1 205.4 93.8C204.6 95.7 204.5 97.9 205.4 99.7C205.6 100.4 207.9 102 210.1 103Z" fill="#FFF7E6"/>
<path d="M210.1 103.2C211.8 103.7 213.6 103.8 215 103.5C213.7 105.6 214.4 108.7 216.5 110.1C218.6 111.5 221.6 110.9 223.1 109C223.6 112.1 225.6 114.9 228.3 116.4C234.4 119.8 239.7 116.3 242.5 110.8C242 111.8 242.9 113.1 244.1 113.2C245.3 113.3 246.3 112.4 246.6 111.3C246.9 110.2 246.8 109 246.5 108C249.9 111.4 254.7 114.4 259.7 113.8C265.3 113.1 268.3 108.9 266.9 103.3C266.1 100.4 264.1 97.9001 261.4 96.7001C264.1 96.6001 266.5 94.3001 266.8 91.7001C267 89.0001 265 86.3001 262.4 85.8001C263.7 86.2001 265.1 85.2001 265.6 83.9001C266.1 82.6001 265.9 81.2001 265.7 79.8001C263.9 69.9001 259.5 60.5001 249 57.8001C242.9 56.2001 233.8 53.7001 228 57.3001C225.9 58.6001 224.2 60.4001 222.5 62.1001C219.1 65.7001 215.7 69.2001 212.3 72.8001C211.2 74.0001 210 75.3001 209.9 76.9001C209.8 78.5001 211.5 80.2001 212.9 79.4001C210.7 79.2001 208.6 80.7001 208 82.8001C207.4 84.9001 208.5 87.3001 210.4 88.3001C209.4 87.8001 206.7 91.9001 206.3 92.6001C205.3 94.5001 204.8 97.0001 205.2 99.1001C205.6 101.1 207.7 102.5 210.1 103.2Z" stroke="#C1BCB6" stroke-width="2" stroke-miterlimit="10" stroke-linecap="round" stroke-linejoin="round"/>
<path d="M253.4 72.1C252.8 71.2 251.9 70.5 250.8 70.3C249.8 70.1 248.6 70.2 247.7 70.8M228.3 66.9C229.2 66.3 230.3 66.1 231.4 66.3C232.5 66.5 233.4 67.1 234.1 68M228.9 79.5C231.4 82.7 236.1 83.8 238.4 81.3C240.1 83.5 245.4 85.4 248.5 83.7M245.7 79.6C245.9 76.4 244.3 71.9 240.4 71.3C236.6 70.3 233.3 73.9 232.3 76.9M238.3 81.4L238.9 77" stroke="#C1BCB6" stroke-width="2" stroke-miterlimit="10" stroke-linecap="round" stroke-linejoin="round"/>
<path d="M233.8 83.6C233.5 85.1 233.3 86.7 233.4 88.2C233.5 89.8 234.2 91.3 235.4 92.3C236.6 93.3 238.5 93.5 239.7 92.5C240.9 91.6 241.2 90 241.3 88.5C241.4 87 241.4 85.5 242.2 84.2" stroke="#C1BCB6" stroke-width="2" stroke-miterlimit="10" stroke-linecap="round" stroke-linejoin="round"/>
<path d="M237.3 87.3C237.1 86.2 237.6 84.9 237.7 84.7M229.9 81.7C229.8 83.9 230.9 86.1 232.7 87.3M241.5 88.8C243.6 88.8 245.6 87 245.8 84.8M236.2 55.3C235.1 52.5 233.4 49.8 231.1 47.5C230.4 46.8 229.6 46.1 228.6 46C227.2 45.9 226.1 46.9 225.4 47.8C221.8 52.5 219.5 59.1 219.5 65M263.4 71.2C264.4 65.9 264.7 61 263.3 55.8C263 54.6 262.4 53.3 261 52.8C260 52.5 258.9 52.8 258 53.2C255 54.4 252.3 56.1 250.2 58.2" stroke="#C1BCB6" stroke-width="2" stroke-miterlimit="10" stroke-linecap="round" stroke-linejoin="round"/>
<path d="M230.8 72.6001C232.126 72.6001 233.2 71.5255 233.2 70.2C233.2 68.8746 232.126 67.8 230.8 67.8C229.475 67.8 228.4 68.8746 228.4 70.2C228.4 71.5255 229.475 72.6001 230.8 72.6001Z" fill="#C1BCB6"/>
<path d="M249.8 76.5C251.126 76.5 252.2 75.4254 252.2 74.1C252.2 72.7745 251.126 71.7 249.8 71.7C248.475 71.7 247.4 72.7745 247.4 74.1C247.4 75.4254 248.475 76.5 249.8 76.5Z" fill="#C1BCB6"/>
<path d="M241.4 78.1001C240.7 78.7001 239.9 79.1 239 79.3C238.8 79.4 238.5 79.3 238.3 79.3C237.1 78.9 236.4 78 235.9 77C235.4 76 236.3 74.9001 237.4 75.1001L240.8 75.8C241.9 76 242.3 77.4001 241.4 78.1001Z" fill="#C1BCB6"/>
<path d="M216.6 89.7C215.4 90.7 215.1 92.5 215.8 93.8C216.5 95.1 218.2 95.7999 219.7 95.3999C218.6 96.2999 219.6 94.8 219.8 96.2C220 97.6 221 98.9 222.3 99.5" stroke="#C1BCB6" stroke-width="2" stroke-miterlimit="10" stroke-linecap="round" stroke-linejoin="round"/>
<path d="M253 73.4C252.3 73.7 251.6 73.9 250.9 74.2C251.5 74.5 252.1 74.7 252.7 75M234.2 69.5C233.5 69.8 232.8 70 232.1 70.3C232.7 70.6 233.3 70.8 233.9 71.1" fill="#FFF7E6"/>
<path d="M230.6 55.2C230.9 53.9 229.6 52.6 228.2 52.6C226.9 52.6 225.7 53.7 225.1 54.9C224.5 56.1 224.4 57.5 224.4 58.8M254.7 59.7C255.2 59.1 255.6 58.4 256.3 58C256.9 57.6 257.8 57.4 258.5 57.7C259.6 58.2 259.9 59.5 260 60.6C260.1 61.9 260.1 63.2 259.9 64.5" stroke="#C1BCB6" stroke-width="2" stroke-miterlimit="10" stroke-linecap="round" stroke-linejoin="round"/>
<path d="M94.4 244.5L152.3 213.2M232.2 213.5L289.3 244.2" stroke="black" stroke-width="2" stroke-miterlimit="10" stroke-linecap="round" stroke-linejoin="round"/>
<defs>
<linearGradient id="paint0_linear_202_324" x1="189.26" y1="318.615" x2="189.26" y2="337.142" gradientUnits="userSpaceOnUse">
<stop stop-color="#161414" stop-opacity="0.4"/>
<stop offset="0.992"/>
</linearGradient>
</defs>
</svg>
